%TF.GenerationSoftware,KiCad,Pcbnew,5.1.6-c6e7f7d~87~ubuntu20.04.1*%
%TF.CreationDate,2020-11-07T15:56:43+00:00*%
%TF.ProjectId,ssi2130_vco,73736932-3133-4305-9f76-636f2e6b6963,1.1*%
%TF.SameCoordinates,Original*%
%TF.FileFunction,Copper,L2,Bot*%
%TF.FilePolarity,Positive*%
%FSLAX46Y46*%
G04 Gerber Fmt 4.6, Leading zero omitted, Abs format (unit mm)*
G04 Created by KiCad (PCBNEW 5.1.6-c6e7f7d~87~ubuntu20.04.1) date 2020-11-07 15:56:43*
%MOMM*%
%LPD*%
G01*
G04 APERTURE LIST*
%TA.AperFunction,ComponentPad*%
%ADD10C,5.600000*%
%TD*%
%TA.AperFunction,ComponentPad*%
%ADD11R,1.700000X1.700000*%
%TD*%
%TA.AperFunction,ComponentPad*%
%ADD12O,1.700000X1.700000*%
%TD*%
%TA.AperFunction,ComponentPad*%
%ADD13C,1.440000*%
%TD*%
%TA.AperFunction,ComponentPad*%
%ADD14C,3.500120*%
%TD*%
%TA.AperFunction,ViaPad*%
%ADD15C,0.800000*%
%TD*%
%TA.AperFunction,Conductor*%
%ADD16C,0.600000*%
%TD*%
%TA.AperFunction,Conductor*%
%ADD17C,0.200000*%
%TD*%
%TA.AperFunction,Conductor*%
%ADD18C,0.250000*%
%TD*%
G04 APERTURE END LIST*
D10*
%TO.P,REF\u002A\u002A,1*%
%TO.N,N/C*%
X97200000Y-126400000D03*
%TD*%
%TO.P,REF\u002A\u002A,1*%
%TO.N,N/C*%
X144600000Y-126400000D03*
%TD*%
%TO.P,REF\u002A\u002A,1*%
%TO.N,N/C*%
X144600000Y-60000000D03*
%TD*%
%TO.P,REF\u002A\u002A,1*%
%TO.N,N/C*%
X97200000Y-60000000D03*
%TD*%
D11*
%TO.P,J2,1*%
%TO.N,FREQ_CV*%
X102400000Y-107800000D03*
D12*
%TO.P,J2,2*%
%TO.N,EXPO_MOD*%
X102400000Y-110340000D03*
%TO.P,J2,3*%
%TO.N,LINEAR_FM*%
X102400000Y-112880000D03*
%TO.P,J2,4*%
%TO.N,TUNE*%
X102400000Y-115420000D03*
%TO.P,J2,5*%
%TO.N,PWM_CV*%
X102400000Y-117960000D03*
%TD*%
D11*
%TO.P,J3,1*%
%TO.N,MIX_TRI_CV*%
X123400000Y-125600000D03*
D12*
%TO.P,J3,2*%
%TO.N,MIX_SAW_CV*%
X125940000Y-125600000D03*
%TO.P,J3,3*%
%TO.N,MIX_PULSE_CV*%
X128480000Y-125600000D03*
%TO.P,J3,4*%
%TO.N,MIX_AUX1_CV*%
X131020000Y-125600000D03*
%TO.P,J3,5*%
%TO.N,MIX_AUX2_CV*%
X133560000Y-125600000D03*
%TD*%
%TO.P,J4,5*%
%TO.N,SOFT_SYNC*%
X138000000Y-93560000D03*
%TO.P,J4,4*%
%TO.N,TRI_REVERSE*%
X138000000Y-91020000D03*
%TO.P,J4,3*%
%TO.N,HARD_SYNC*%
X138000000Y-88480000D03*
%TO.P,J4,2*%
%TO.N,AUX2_IN*%
X138000000Y-85940000D03*
D11*
%TO.P,J4,1*%
%TO.N,AUX1_IN*%
X138000000Y-83400000D03*
%TD*%
D12*
%TO.P,J5,6*%
%TO.N,MIX_OUT*%
X129300000Y-88800000D03*
%TO.P,J5,5*%
%TO.N,SINE_OUT*%
X126760000Y-88800000D03*
%TO.P,J5,4*%
%TO.N,SQUARE_OUT*%
X124220000Y-88800000D03*
%TO.P,J5,3*%
%TO.N,SAW_OUT*%
X121680000Y-88800000D03*
%TO.P,J5,2*%
%TO.N,PULSE_OUT*%
X119140000Y-88800000D03*
D11*
%TO.P,J5,1*%
%TO.N,TRI_OUT*%
X116600000Y-88800000D03*
%TD*%
%TO.P,J1,1*%
%TO.N,+12V*%
X98600000Y-66600000D03*
D12*
%TO.P,J1,2*%
%TO.N,GND*%
X98600000Y-69140000D03*
%TO.P,J1,3*%
%TO.N,-12V*%
X98600000Y-71680000D03*
%TD*%
%TO.P,J6,3*%
%TO.N,REF_-5V*%
X139080000Y-59200000D03*
%TO.P,J6,2*%
%TO.N,REF_2V5*%
X136540000Y-59200000D03*
D11*
%TO.P,J6,1*%
%TO.N,REF_+5V*%
X134000000Y-59200000D03*
%TD*%
D13*
%TO.P,RV1,3*%
%TO.N,GND*%
X103200000Y-101080000D03*
%TO.P,RV1,2*%
%TO.N,Net-(R7-Pad2)*%
X103200000Y-98540000D03*
%TO.P,RV1,1*%
%TO.N,Net-(RV1-Pad1)*%
X103200000Y-96000000D03*
%TD*%
%TO.P,RV2,1*%
%TO.N,Net-(RV2-Pad1)*%
X139400000Y-103200000D03*
%TO.P,RV2,2*%
%TO.N,Net-(R16-Pad1)*%
X139400000Y-105740000D03*
%TO.P,RV2,3*%
X139400000Y-108280000D03*
%TD*%
%TO.P,RV3,3*%
%TO.N,REF_2V5*%
X116940000Y-123600000D03*
%TO.P,RV3,2*%
%TO.N,Net-(R20-Pad1)*%
X114400000Y-123600000D03*
%TO.P,RV3,1*%
%TO.N,GND*%
X111860000Y-123600000D03*
%TD*%
D12*
%TO.P,J7,3*%
%TO.N,-5V*%
X104720000Y-83800000D03*
%TO.P,J7,2*%
%TO.N,GND*%
X107260000Y-83800000D03*
D11*
%TO.P,J7,1*%
%TO.N,+5V*%
X109800000Y-83800000D03*
%TD*%
D14*
%TO.P,TP1,1*%
%TO.N,GND*%
X138000000Y-74200000D03*
%TD*%
D15*
%TO.N,GND*%
X106229999Y-94779999D03*
X115379999Y-94779999D03*
X123200000Y-95800000D03*
X123600000Y-109000000D03*
X125574483Y-106600000D03*
X129000000Y-114600000D03*
%TO.N,-12V*%
X129000000Y-66000000D03*
%TO.N,+5V*%
X113474990Y-91000000D03*
X121400000Y-94800000D03*
%TO.N,LINEAR_FM*%
X127200020Y-105800000D03*
%TO.N,PWM_CV*%
X119000000Y-101200000D03*
%TO.N,AUX2_IN*%
X114635279Y-105386352D03*
%TO.N,AUX1_IN*%
X114600000Y-104200000D03*
%TO.N,REF_2V5*%
X111600000Y-104400000D03*
X126285987Y-104559663D03*
X131200000Y-109400000D03*
X122049068Y-66150941D03*
X112200000Y-94800000D03*
%TO.N,REF_+5V*%
X122908976Y-68036169D03*
%TO.N,Net-(RV2-Pad1)*%
X130200000Y-102600000D03*
%TD*%
D16*
%TO.N,GND*%
X97249999Y-95129999D02*
X103200000Y-101080000D01*
X98600000Y-69140000D02*
X97249999Y-70490001D01*
X97249999Y-92449999D02*
X103899999Y-92449999D01*
X103899999Y-92449999D02*
X106229999Y-94779999D01*
X97249999Y-70490001D02*
X97249999Y-92449999D01*
X97249999Y-92449999D02*
X97249999Y-95129999D01*
X112699999Y-92099999D02*
X115379999Y-94779999D01*
X104249999Y-92099999D02*
X112699999Y-92099999D01*
X103899999Y-92449999D02*
X104249999Y-92099999D01*
X116400000Y-95800000D02*
X123200000Y-95800000D01*
X112699999Y-92099999D02*
X116400000Y-95800000D01*
D17*
X125574483Y-107025517D02*
X125574483Y-106600000D01*
X123600000Y-109000000D02*
X125574483Y-107025517D01*
D16*
X107260000Y-89089998D02*
X104249999Y-92099999D01*
X107260000Y-83800000D02*
X107260000Y-89089998D01*
X113460000Y-125200000D02*
X113210001Y-124950001D01*
X129000000Y-116400000D02*
X120200000Y-125200000D01*
X113210001Y-124950001D02*
X111860000Y-123600000D01*
X120200000Y-125200000D02*
X113460000Y-125200000D01*
X129000000Y-114600000D02*
X129000000Y-116400000D01*
%TO.N,-12V*%
X122800000Y-69200000D02*
X125800000Y-69200000D01*
X116200000Y-62600000D02*
X122800000Y-69200000D01*
X98600000Y-71680000D02*
X107680000Y-62600000D01*
X107680000Y-62600000D02*
X116200000Y-62600000D01*
X125800000Y-69200000D02*
X129000000Y-66000000D01*
%TO.N,+5V*%
X117274990Y-94800000D02*
X121400000Y-94800000D01*
X113474990Y-91000000D02*
X117274990Y-94800000D01*
D17*
%TO.N,LINEAR_FM*%
X102400000Y-112880000D02*
X121921056Y-112880000D01*
X121921056Y-112880000D02*
X127200020Y-107601036D01*
X127200020Y-107601036D02*
X127200020Y-105800000D01*
%TO.N,PWM_CV*%
X119000000Y-100634315D02*
X119000000Y-101200000D01*
X119000000Y-100563996D02*
X119000000Y-100634315D01*
X112536002Y-94099998D02*
X119000000Y-100563996D01*
X111900002Y-94099998D02*
X112536002Y-94099998D01*
X100799989Y-105200011D02*
X111900002Y-94099998D01*
X102400000Y-117960000D02*
X100799989Y-116359989D01*
X100799989Y-116359989D02*
X100799989Y-105200011D01*
%TO.N,AUX2_IN*%
X138000000Y-85940000D02*
X135954990Y-85940000D01*
X135954990Y-85940000D02*
X116508638Y-105386352D01*
X116508638Y-105386352D02*
X114635279Y-105386352D01*
%TO.N,AUX1_IN*%
X131847999Y-89552001D02*
X138000000Y-83400000D01*
X117200000Y-104200000D02*
X131847999Y-89552001D01*
X114600000Y-104200000D02*
X117200000Y-104200000D01*
D18*
%TO.N,REF_2V5*%
X102025997Y-111515001D02*
X101224999Y-112315999D01*
X104484999Y-111515001D02*
X102025997Y-111515001D01*
X111600000Y-104400000D02*
X104484999Y-111515001D01*
X126299483Y-107900517D02*
X126299483Y-104573159D01*
X117600000Y-109800000D02*
X124400000Y-109800000D01*
X112200000Y-104400000D02*
X117600000Y-109800000D01*
X124400000Y-109800000D02*
X126299483Y-107900517D01*
X111600000Y-104400000D02*
X112200000Y-104400000D01*
X126299483Y-104573159D02*
X126285987Y-104559663D01*
X102025997Y-116784999D02*
X110124999Y-116784999D01*
X101224999Y-115984001D02*
X102025997Y-116784999D01*
X110124999Y-116784999D02*
X116940000Y-123600000D01*
X101224999Y-112315999D02*
X101224999Y-115984001D01*
X122925010Y-65274999D02*
X122049068Y-66150941D01*
X130465001Y-65274999D02*
X136540000Y-59200000D01*
X122925010Y-65274999D02*
X130465001Y-65274999D01*
X131200000Y-108763489D02*
X131200000Y-109400000D01*
X126996174Y-104559663D02*
X131200000Y-108763489D01*
X126285987Y-104559663D02*
X126996174Y-104559663D01*
X112200000Y-103800000D02*
X112200000Y-94800000D01*
X111600000Y-104400000D02*
X112200000Y-103800000D01*
%TO.N,REF_+5V*%
X121274999Y-65851999D02*
X121274999Y-66402192D01*
X122302009Y-64824989D02*
X121274999Y-65851999D01*
X121274999Y-66402192D02*
X122908976Y-68036169D01*
X128375011Y-64824989D02*
X134000000Y-59200000D01*
X122302009Y-64824989D02*
X128375011Y-64824989D01*
D17*
%TO.N,Net-(RV2-Pad1)*%
X138800000Y-102600000D02*
X139400000Y-103200000D01*
X130200000Y-102600000D02*
X138800000Y-102600000D01*
%TD*%
M02*
