%TF.GenerationSoftware,KiCad,Pcbnew,5.1.6-c6e7f7d~87~ubuntu20.04.1*%
%TF.CreationDate,2020-11-07T15:56:43+00:00*%
%TF.ProjectId,ssi2130_vco,73736932-3133-4305-9f76-636f2e6b6963,1.1*%
%TF.SameCoordinates,Original*%
%TF.FileFunction,Soldermask,Top*%
%TF.FilePolarity,Negative*%
%FSLAX46Y46*%
G04 Gerber Fmt 4.6, Leading zero omitted, Abs format (unit mm)*
G04 Created by KiCad (PCBNEW 5.1.6-c6e7f7d~87~ubuntu20.04.1) date 2020-11-07 15:56:43*
%MOMM*%
%LPD*%
G01*
G04 APERTURE LIST*
%ADD10C,5.700000*%
%ADD11R,1.350000X1.100000*%
%ADD12R,0.800000X1.400000*%
%ADD13R,1.100000X1.350000*%
%ADD14R,1.800000X1.800000*%
%ADD15O,1.800000X1.800000*%
%ADD16R,1.400000X0.800000*%
%ADD17R,1.600000X0.300000*%
%ADD18R,0.300000X1.600000*%
%ADD19R,1.000000X0.900000*%
%ADD20C,0.100000*%
%ADD21R,1.100000X1.600000*%
%ADD22R,1.100000X1.900000*%
%ADD23R,2.300000X1.940000*%
%ADD24C,1.540000*%
%ADD25R,1.700000X2.700000*%
%ADD26C,3.600120*%
G04 APERTURE END LIST*
D10*
%TO.C,REF\u002A\u002A*%
X97200000Y-126400000D03*
%TD*%
%TO.C,REF\u002A\u002A*%
X144600000Y-126400000D03*
%TD*%
%TO.C,REF\u002A\u002A*%
X144600000Y-60000000D03*
%TD*%
%TO.C,REF\u002A\u002A*%
X97200000Y-60000000D03*
%TD*%
D11*
%TO.C,C2*%
X103600000Y-70400000D03*
X103600000Y-72400000D03*
%TD*%
D12*
%TO.C,R19*%
X113550000Y-107200000D03*
X111650000Y-107200000D03*
%TD*%
D11*
%TO.C,C1*%
X105800000Y-66200000D03*
X105800000Y-68200000D03*
%TD*%
D13*
%TO.C,C3*%
X114600000Y-97200000D03*
X112600000Y-97200000D03*
%TD*%
D11*
%TO.C,C4*%
X113600000Y-63800000D03*
X113600000Y-65800000D03*
%TD*%
%TO.C,C5*%
X106000000Y-73800000D03*
X106000000Y-71800000D03*
%TD*%
D13*
%TO.C,C6*%
X123800000Y-99200000D03*
X121800000Y-99200000D03*
%TD*%
%TO.C,C7*%
X114600000Y-109800000D03*
X116600000Y-109800000D03*
%TD*%
%TO.C,C8*%
X127400000Y-111800000D03*
X125400000Y-111800000D03*
%TD*%
%TO.C,C9*%
X126000000Y-99200000D03*
X128000000Y-99200000D03*
%TD*%
%TO.C,C10*%
X128600000Y-105200000D03*
X130600000Y-105200000D03*
%TD*%
D14*
%TO.C,J2*%
X102400000Y-107800000D03*
D15*
X102400000Y-110340000D03*
X102400000Y-112880000D03*
X102400000Y-115420000D03*
X102400000Y-117960000D03*
%TD*%
D14*
%TO.C,J3*%
X123400000Y-125600000D03*
D15*
X125940000Y-125600000D03*
X128480000Y-125600000D03*
X131020000Y-125600000D03*
X133560000Y-125600000D03*
%TD*%
%TO.C,J4*%
X138000000Y-93560000D03*
X138000000Y-91020000D03*
X138000000Y-88480000D03*
X138000000Y-85940000D03*
D14*
X138000000Y-83400000D03*
%TD*%
D15*
%TO.C,J5*%
X129300000Y-88800000D03*
X126760000Y-88800000D03*
X124220000Y-88800000D03*
X121680000Y-88800000D03*
X119140000Y-88800000D03*
D14*
X116600000Y-88800000D03*
%TD*%
D16*
%TO.C,R1*%
X118000000Y-66250000D03*
X118000000Y-68150000D03*
%TD*%
D12*
%TO.C,R2*%
X118550000Y-99200000D03*
X116650000Y-99200000D03*
%TD*%
%TO.C,R3*%
X114550000Y-101200000D03*
X112650000Y-101200000D03*
%TD*%
%TO.C,R4*%
X107450000Y-104000000D03*
X109350000Y-104000000D03*
%TD*%
%TO.C,R5*%
X109350000Y-106000000D03*
X107450000Y-106000000D03*
%TD*%
%TO.C,R6*%
X109350000Y-108000000D03*
X107450000Y-108000000D03*
%TD*%
%TO.C,R7*%
X109350000Y-102200000D03*
X107450000Y-102200000D03*
%TD*%
%TO.C,R8*%
X114550000Y-99200000D03*
X112650000Y-99200000D03*
%TD*%
D16*
%TO.C,R9*%
X118600000Y-114050000D03*
X118600000Y-115950000D03*
%TD*%
%TO.C,R10*%
X120800000Y-114050000D03*
X120800000Y-115950000D03*
%TD*%
%TO.C,R11*%
X123000000Y-115950000D03*
X123000000Y-114050000D03*
%TD*%
%TO.C,R12*%
X125200000Y-114050000D03*
X125200000Y-115950000D03*
%TD*%
%TO.C,R13*%
X127400000Y-115950000D03*
X127400000Y-114050000D03*
%TD*%
D12*
%TO.C,R14*%
X124050000Y-101800000D03*
X125950000Y-101800000D03*
%TD*%
%TO.C,R15*%
X132150000Y-95200000D03*
X130250000Y-95200000D03*
%TD*%
%TO.C,R16*%
X134350000Y-109800000D03*
X132450000Y-109800000D03*
%TD*%
D16*
%TO.C,R17*%
X124400000Y-67950000D03*
X124400000Y-66050000D03*
%TD*%
%TO.C,R18*%
X130800000Y-67950000D03*
X130800000Y-66050000D03*
%TD*%
%TO.C,R20*%
X111000000Y-108850000D03*
X111000000Y-110750000D03*
%TD*%
D17*
%TO.C,U1*%
X118300000Y-105000000D03*
X118300000Y-105400000D03*
X118300000Y-105800000D03*
X118300000Y-106200000D03*
X118300000Y-106600000D03*
X118300000Y-107000000D03*
D18*
X119800000Y-108500000D03*
X120200000Y-108500000D03*
X121800000Y-108500000D03*
X120600000Y-108500000D03*
X121400000Y-108500000D03*
X121000000Y-108500000D03*
D17*
X123300000Y-107000000D03*
X123300000Y-105400000D03*
X123300000Y-106600000D03*
X123300000Y-105000000D03*
X123300000Y-106200000D03*
X123300000Y-105800000D03*
D18*
X121000000Y-103500000D03*
X120600000Y-103500000D03*
X119800000Y-103500000D03*
X121800000Y-103500000D03*
X121400000Y-103500000D03*
X120200000Y-103500000D03*
D17*
X118300000Y-104600000D03*
X118300000Y-107400000D03*
D18*
X119400000Y-108500000D03*
X122200000Y-108500000D03*
D17*
X123300000Y-107400000D03*
X123300000Y-104600000D03*
D18*
X122200000Y-103500000D03*
X119400000Y-103500000D03*
%TD*%
D19*
%TO.C,U2*%
X117800000Y-70450000D03*
X117800000Y-72350000D03*
X119800000Y-71400000D03*
%TD*%
D20*
%TO.C,U3*%
G36*
X110996496Y-69792000D02*
G01*
X110325908Y-70742000D01*
X109274092Y-70742000D01*
X108603504Y-69792000D01*
X110996496Y-69792000D01*
G37*
D21*
X111300000Y-66120000D03*
D22*
X109800000Y-66266500D03*
D21*
X108300000Y-66120000D03*
D23*
X109800000Y-68933500D03*
D20*
G36*
X108603967Y-68073800D02*
G01*
X109373967Y-66973800D01*
X110226033Y-66973800D01*
X110996033Y-68073800D01*
X108603967Y-68073800D01*
G37*
%TD*%
%TO.C,U4*%
G36*
X108603967Y-75540300D02*
G01*
X109373967Y-74440300D01*
X110226033Y-74440300D01*
X110996033Y-75540300D01*
X108603967Y-75540300D01*
G37*
D23*
X109800000Y-76400000D03*
D21*
X108300000Y-73586500D03*
D22*
X109800000Y-73733000D03*
D21*
X111300000Y-73586500D03*
D20*
G36*
X110996496Y-77258500D02*
G01*
X110325908Y-78208500D01*
X109274092Y-78208500D01*
X108603504Y-77258500D01*
X110996496Y-77258500D01*
G37*
%TD*%
D19*
%TO.C,U5*%
X126200000Y-71400000D03*
X124200000Y-72350000D03*
X124200000Y-70450000D03*
%TD*%
%TO.C,U6*%
X131800000Y-71400000D03*
X129800000Y-72350000D03*
X129800000Y-70450000D03*
%TD*%
D14*
%TO.C,J1*%
X98600000Y-66600000D03*
D15*
X98600000Y-69140000D03*
X98600000Y-71680000D03*
%TD*%
%TO.C,J6*%
X139080000Y-59200000D03*
X136540000Y-59200000D03*
D14*
X134000000Y-59200000D03*
%TD*%
D24*
%TO.C,RV1*%
X103200000Y-101080000D03*
X103200000Y-98540000D03*
X103200000Y-96000000D03*
%TD*%
%TO.C,RV2*%
X139400000Y-103200000D03*
X139400000Y-105740000D03*
X139400000Y-108280000D03*
%TD*%
%TO.C,RV3*%
X116940000Y-123600000D03*
X114400000Y-123600000D03*
X111860000Y-123600000D03*
%TD*%
D25*
%TO.C,C11*%
X110000000Y-94200000D03*
X110000000Y-90600000D03*
%TD*%
D15*
%TO.C,J7*%
X104720000Y-83800000D03*
X107260000Y-83800000D03*
D14*
X109800000Y-83800000D03*
%TD*%
D26*
%TO.C,TP1*%
X138000000Y-74200000D03*
%TD*%
M02*
