%TF.GenerationSoftware,KiCad,Pcbnew,5.1.6-c6e7f7d~87~ubuntu20.04.1*%
%TF.CreationDate,2020-11-07T15:56:43+00:00*%
%TF.ProjectId,ssi2130_vco,73736932-3133-4305-9f76-636f2e6b6963,1.1*%
%TF.SameCoordinates,Original*%
%TF.FileFunction,Copper,L1,Top*%
%TF.FilePolarity,Positive*%
%FSLAX46Y46*%
G04 Gerber Fmt 4.6, Leading zero omitted, Abs format (unit mm)*
G04 Created by KiCad (PCBNEW 5.1.6-c6e7f7d~87~ubuntu20.04.1) date 2020-11-07 15:56:43*
%MOMM*%
%LPD*%
G01*
G04 APERTURE LIST*
%TA.AperFunction,ComponentPad*%
%ADD10C,5.600000*%
%TD*%
%TA.AperFunction,SMDPad,CuDef*%
%ADD11R,1.250000X1.000000*%
%TD*%
%TA.AperFunction,SMDPad,CuDef*%
%ADD12R,0.700000X1.300000*%
%TD*%
%TA.AperFunction,SMDPad,CuDef*%
%ADD13R,1.000000X1.250000*%
%TD*%
%TA.AperFunction,ComponentPad*%
%ADD14R,1.700000X1.700000*%
%TD*%
%TA.AperFunction,ComponentPad*%
%ADD15O,1.700000X1.700000*%
%TD*%
%TA.AperFunction,SMDPad,CuDef*%
%ADD16R,1.300000X0.700000*%
%TD*%
%TA.AperFunction,SMDPad,CuDef*%
%ADD17R,1.500000X0.200000*%
%TD*%
%TA.AperFunction,SMDPad,CuDef*%
%ADD18R,0.200000X1.500000*%
%TD*%
%TA.AperFunction,SMDPad,CuDef*%
%ADD19R,0.900000X0.800000*%
%TD*%
%TA.AperFunction,SMDPad,CuDef*%
%ADD20C,0.100000*%
%TD*%
%TA.AperFunction,SMDPad,CuDef*%
%ADD21R,1.000000X1.500000*%
%TD*%
%TA.AperFunction,SMDPad,CuDef*%
%ADD22R,1.000000X1.800000*%
%TD*%
%TA.AperFunction,SMDPad,CuDef*%
%ADD23R,2.200000X1.840000*%
%TD*%
%TA.AperFunction,ComponentPad*%
%ADD24C,1.440000*%
%TD*%
%TA.AperFunction,SMDPad,CuDef*%
%ADD25R,1.600000X2.600000*%
%TD*%
%TA.AperFunction,ComponentPad*%
%ADD26C,3.500120*%
%TD*%
%TA.AperFunction,ViaPad*%
%ADD27C,0.800000*%
%TD*%
%TA.AperFunction,Conductor*%
%ADD28C,0.600000*%
%TD*%
%TA.AperFunction,Conductor*%
%ADD29C,0.200000*%
%TD*%
%TA.AperFunction,Conductor*%
%ADD30C,0.250000*%
%TD*%
G04 APERTURE END LIST*
D10*
%TO.P,REF\u002A\u002A,1*%
%TO.N,N/C*%
X97200000Y-126400000D03*
%TD*%
%TO.P,REF\u002A\u002A,1*%
%TO.N,N/C*%
X144600000Y-126400000D03*
%TD*%
%TO.P,REF\u002A\u002A,1*%
%TO.N,N/C*%
X144600000Y-60000000D03*
%TD*%
%TO.P,REF\u002A\u002A,1*%
%TO.N,N/C*%
X97200000Y-60000000D03*
%TD*%
D11*
%TO.P,C2,2*%
%TO.N,GND*%
X103600000Y-70400000D03*
%TO.P,C2,1*%
%TO.N,-12V*%
X103600000Y-72400000D03*
%TD*%
D12*
%TO.P,R19,2*%
%TO.N,Net-(R19-Pad2)*%
X113550000Y-107200000D03*
%TO.P,R19,1*%
%TO.N,REF_2V5*%
X111650000Y-107200000D03*
%TD*%
D11*
%TO.P,C1,1*%
%TO.N,+12V*%
X105800000Y-66200000D03*
%TO.P,C1,2*%
%TO.N,GND*%
X105800000Y-68200000D03*
%TD*%
D13*
%TO.P,C3,1*%
%TO.N,TRI_OUT*%
X114600000Y-97200000D03*
%TO.P,C3,2*%
%TO.N,Net-(C11-Pad2)*%
X112600000Y-97200000D03*
%TD*%
D11*
%TO.P,C4,2*%
%TO.N,GND*%
X113600000Y-63800000D03*
%TO.P,C4,1*%
%TO.N,+5V*%
X113600000Y-65800000D03*
%TD*%
%TO.P,C5,1*%
%TO.N,-5V*%
X106000000Y-73800000D03*
%TO.P,C5,2*%
%TO.N,GND*%
X106000000Y-71800000D03*
%TD*%
D13*
%TO.P,C6,2*%
%TO.N,GND*%
X123800000Y-99200000D03*
%TO.P,C6,1*%
%TO.N,+5V*%
X121800000Y-99200000D03*
%TD*%
%TO.P,C7,1*%
%TO.N,GND*%
X114600000Y-109800000D03*
%TO.P,C7,2*%
%TO.N,-5V*%
X116600000Y-109800000D03*
%TD*%
%TO.P,C8,2*%
%TO.N,GND*%
X127400000Y-111800000D03*
%TO.P,C8,1*%
%TO.N,Net-(C8-Pad1)*%
X125400000Y-111800000D03*
%TD*%
%TO.P,C9,2*%
%TO.N,GND*%
X126000000Y-99200000D03*
%TO.P,C9,1*%
%TO.N,Net-(C9-Pad1)*%
X128000000Y-99200000D03*
%TD*%
%TO.P,C10,1*%
%TO.N,Net-(C10-Pad1)*%
X128600000Y-105200000D03*
%TO.P,C10,2*%
%TO.N,SOFT_SYNC*%
X130600000Y-105200000D03*
%TD*%
D14*
%TO.P,J2,1*%
%TO.N,FREQ_CV*%
X102400000Y-107800000D03*
D15*
%TO.P,J2,2*%
%TO.N,EXPO_MOD*%
X102400000Y-110340000D03*
%TO.P,J2,3*%
%TO.N,LINEAR_FM*%
X102400000Y-112880000D03*
%TO.P,J2,4*%
%TO.N,TUNE*%
X102400000Y-115420000D03*
%TO.P,J2,5*%
%TO.N,PWM_CV*%
X102400000Y-117960000D03*
%TD*%
D14*
%TO.P,J3,1*%
%TO.N,MIX_TRI_CV*%
X123400000Y-125600000D03*
D15*
%TO.P,J3,2*%
%TO.N,MIX_SAW_CV*%
X125940000Y-125600000D03*
%TO.P,J3,3*%
%TO.N,MIX_PULSE_CV*%
X128480000Y-125600000D03*
%TO.P,J3,4*%
%TO.N,MIX_AUX1_CV*%
X131020000Y-125600000D03*
%TO.P,J3,5*%
%TO.N,MIX_AUX2_CV*%
X133560000Y-125600000D03*
%TD*%
%TO.P,J4,5*%
%TO.N,SOFT_SYNC*%
X138000000Y-93560000D03*
%TO.P,J4,4*%
%TO.N,TRI_REVERSE*%
X138000000Y-91020000D03*
%TO.P,J4,3*%
%TO.N,HARD_SYNC*%
X138000000Y-88480000D03*
%TO.P,J4,2*%
%TO.N,AUX2_IN*%
X138000000Y-85940000D03*
D14*
%TO.P,J4,1*%
%TO.N,AUX1_IN*%
X138000000Y-83400000D03*
%TD*%
D15*
%TO.P,J5,6*%
%TO.N,MIX_OUT*%
X129300000Y-88800000D03*
%TO.P,J5,5*%
%TO.N,SINE_OUT*%
X126760000Y-88800000D03*
%TO.P,J5,4*%
%TO.N,SQUARE_OUT*%
X124220000Y-88800000D03*
%TO.P,J5,3*%
%TO.N,SAW_OUT*%
X121680000Y-88800000D03*
%TO.P,J5,2*%
%TO.N,PULSE_OUT*%
X119140000Y-88800000D03*
D14*
%TO.P,J5,1*%
%TO.N,TRI_OUT*%
X116600000Y-88800000D03*
%TD*%
D16*
%TO.P,R1,2*%
%TO.N,+5V*%
X118000000Y-66250000D03*
%TO.P,R1,1*%
%TO.N,REF_2V5*%
X118000000Y-68150000D03*
%TD*%
D12*
%TO.P,R2,2*%
%TO.N,GND*%
X118550000Y-99200000D03*
%TO.P,R2,1*%
%TO.N,Net-(R2-Pad1)*%
X116650000Y-99200000D03*
%TD*%
%TO.P,R3,1*%
%TO.N,Net-(R3-Pad1)*%
X114550000Y-101200000D03*
%TO.P,R3,2*%
%TO.N,GND*%
X112650000Y-101200000D03*
%TD*%
%TO.P,R4,2*%
%TO.N,FREQ_CV*%
X107450000Y-104000000D03*
%TO.P,R4,1*%
%TO.N,Net-(R19-Pad2)*%
X109350000Y-104000000D03*
%TD*%
%TO.P,R5,1*%
%TO.N,Net-(R19-Pad2)*%
X109350000Y-106000000D03*
%TO.P,R5,2*%
%TO.N,EXPO_MOD*%
X107450000Y-106000000D03*
%TD*%
%TO.P,R6,1*%
%TO.N,Net-(R19-Pad2)*%
X109350000Y-108000000D03*
%TO.P,R6,2*%
%TO.N,TUNE*%
X107450000Y-108000000D03*
%TD*%
%TO.P,R7,1*%
%TO.N,Net-(R19-Pad2)*%
X109350000Y-102200000D03*
%TO.P,R7,2*%
%TO.N,Net-(R7-Pad2)*%
X107450000Y-102200000D03*
%TD*%
%TO.P,R8,1*%
%TO.N,Net-(R2-Pad1)*%
X114550000Y-99200000D03*
%TO.P,R8,2*%
%TO.N,Net-(C11-Pad2)*%
X112650000Y-99200000D03*
%TD*%
D16*
%TO.P,R9,2*%
%TO.N,Net-(R9-Pad2)*%
X118600000Y-114050000D03*
%TO.P,R9,1*%
%TO.N,MIX_TRI_CV*%
X118600000Y-115950000D03*
%TD*%
%TO.P,R10,2*%
%TO.N,Net-(R10-Pad2)*%
X120800000Y-114050000D03*
%TO.P,R10,1*%
%TO.N,MIX_SAW_CV*%
X120800000Y-115950000D03*
%TD*%
%TO.P,R11,1*%
%TO.N,MIX_PULSE_CV*%
X123000000Y-115950000D03*
%TO.P,R11,2*%
%TO.N,Net-(R11-Pad2)*%
X123000000Y-114050000D03*
%TD*%
%TO.P,R12,2*%
%TO.N,Net-(R12-Pad2)*%
X125200000Y-114050000D03*
%TO.P,R12,1*%
%TO.N,MIX_AUX1_CV*%
X125200000Y-115950000D03*
%TD*%
%TO.P,R13,1*%
%TO.N,MIX_AUX2_CV*%
X127400000Y-115950000D03*
%TO.P,R13,2*%
%TO.N,Net-(R13-Pad2)*%
X127400000Y-114050000D03*
%TD*%
D12*
%TO.P,R14,1*%
%TO.N,Net-(R14-Pad1)*%
X124050000Y-101800000D03*
%TO.P,R14,2*%
%TO.N,Net-(C9-Pad1)*%
X125950000Y-101800000D03*
%TD*%
%TO.P,R15,2*%
%TO.N,GND*%
X132150000Y-95200000D03*
%TO.P,R15,1*%
%TO.N,MIX_OUT*%
X130250000Y-95200000D03*
%TD*%
%TO.P,R16,1*%
%TO.N,Net-(R16-Pad1)*%
X134350000Y-109800000D03*
%TO.P,R16,2*%
%TO.N,REF_2V5*%
X132450000Y-109800000D03*
%TD*%
D16*
%TO.P,R17,1*%
%TO.N,REF_+5V*%
X124400000Y-67950000D03*
%TO.P,R17,2*%
%TO.N,+12V*%
X124400000Y-66050000D03*
%TD*%
%TO.P,R18,2*%
%TO.N,REF_-5V*%
X130800000Y-67950000D03*
%TO.P,R18,1*%
%TO.N,-12V*%
X130800000Y-66050000D03*
%TD*%
%TO.P,R20,2*%
%TO.N,Net-(R19-Pad2)*%
X111000000Y-108850000D03*
%TO.P,R20,1*%
%TO.N,Net-(R20-Pad1)*%
X111000000Y-110750000D03*
%TD*%
D17*
%TO.P,U1,2*%
%TO.N,Net-(R2-Pad1)*%
X118300000Y-105000000D03*
%TO.P,U1,3*%
%TO.N,Net-(R3-Pad1)*%
X118300000Y-105400000D03*
%TO.P,U1,4*%
%TO.N,AUX1_IN*%
X118300000Y-105800000D03*
%TO.P,U1,5*%
%TO.N,AUX2_IN*%
X118300000Y-106200000D03*
%TO.P,U1,6*%
%TO.N,Net-(RV1-Pad1)*%
X118300000Y-106600000D03*
%TO.P,U1,7*%
%TO.N,Net-(R19-Pad2)*%
X118300000Y-107000000D03*
D18*
%TO.P,U1,10*%
%TO.N,Net-(R10-Pad2)*%
X119800000Y-108500000D03*
%TO.P,U1,11*%
%TO.N,Net-(R11-Pad2)*%
X120200000Y-108500000D03*
%TO.P,U1,15*%
%TO.N,GND*%
X121800000Y-108500000D03*
%TO.P,U1,12*%
%TO.N,Net-(R12-Pad2)*%
X120600000Y-108500000D03*
%TO.P,U1,14*%
%TO.N,Net-(C8-Pad1)*%
X121400000Y-108500000D03*
%TO.P,U1,13*%
%TO.N,Net-(R13-Pad2)*%
X121000000Y-108500000D03*
D17*
%TO.P,U1,18*%
%TO.N,TRI_REVERSE*%
X123300000Y-107000000D03*
%TO.P,U1,22*%
%TO.N,Net-(RV2-Pad1)*%
X123300000Y-105400000D03*
%TO.P,U1,19*%
%TO.N,Net-(C10-Pad1)*%
X123300000Y-106600000D03*
%TO.P,U1,23*%
%TO.N,REF_2V5*%
X123300000Y-105000000D03*
%TO.P,U1,20*%
%TO.N,GND*%
X123300000Y-106200000D03*
%TO.P,U1,21*%
%TO.N,LINEAR_FM*%
X123300000Y-105800000D03*
D18*
%TO.P,U1,28*%
%TO.N,SQUARE_OUT*%
X121000000Y-103500000D03*
%TO.P,U1,29*%
%TO.N,SAW_OUT*%
X120600000Y-103500000D03*
%TO.P,U1,31*%
%TO.N,TRI_OUT*%
X119800000Y-103500000D03*
%TO.P,U1,26*%
%TO.N,Net-(R14-Pad1)*%
X121800000Y-103500000D03*
%TO.P,U1,27*%
%TO.N,+5V*%
X121400000Y-103500000D03*
%TO.P,U1,30*%
%TO.N,PULSE_OUT*%
X120200000Y-103500000D03*
D17*
%TO.P,U1,1*%
%TO.N,TRI_OUT*%
X118300000Y-104600000D03*
%TO.P,U1,8*%
%TO.N,-5V*%
X118300000Y-107400000D03*
D18*
%TO.P,U1,9*%
%TO.N,Net-(R9-Pad2)*%
X119400000Y-108500000D03*
%TO.P,U1,16*%
%TO.N,GND*%
X122200000Y-108500000D03*
D17*
%TO.P,U1,17*%
%TO.N,HARD_SYNC*%
X123300000Y-107400000D03*
%TO.P,U1,24*%
%TO.N,SINE_OUT*%
X123300000Y-104600000D03*
D18*
%TO.P,U1,25*%
%TO.N,MIX_OUT*%
X122200000Y-103500000D03*
%TO.P,U1,32*%
%TO.N,PWM_CV*%
X119400000Y-103500000D03*
%TD*%
D19*
%TO.P,U2,1*%
%TO.N,REF_2V5*%
X117800000Y-70450000D03*
%TO.P,U2,2*%
%TO.N,GND*%
X117800000Y-72350000D03*
%TO.P,U2,3*%
%TO.N,N/C*%
X119800000Y-71400000D03*
%TD*%
%TA.AperFunction,SMDPad,CuDef*%
D20*
%TO.P,U3,2*%
%TO.N,GND*%
G36*
X110900000Y-69842000D02*
G01*
X110300000Y-70692000D01*
X109300000Y-70692000D01*
X108700000Y-69842000D01*
X110900000Y-69842000D01*
G37*
%TD.AperFunction*%
D21*
%TO.P,U3,1*%
%TO.N,+5V*%
X111300000Y-66120000D03*
D22*
%TO.P,U3,2*%
%TO.N,GND*%
X109800000Y-66266500D03*
D21*
%TO.P,U3,3*%
%TO.N,+12V*%
X108300000Y-66120000D03*
D23*
%TO.P,U3,2*%
%TO.N,GND*%
X109800000Y-68933500D03*
%TA.AperFunction,SMDPad,CuDef*%
D20*
G36*
X108700000Y-68023800D02*
G01*
X109400000Y-67023800D01*
X110200000Y-67023800D01*
X110900000Y-68023800D01*
X108700000Y-68023800D01*
G37*
%TD.AperFunction*%
%TD*%
%TA.AperFunction,SMDPad,CuDef*%
%TO.P,U4,2*%
%TO.N,-12V*%
G36*
X108700000Y-75490300D02*
G01*
X109400000Y-74490300D01*
X110200000Y-74490300D01*
X110900000Y-75490300D01*
X108700000Y-75490300D01*
G37*
%TD.AperFunction*%
D23*
X109800000Y-76400000D03*
D21*
%TO.P,U4,3*%
%TO.N,-5V*%
X108300000Y-73586500D03*
D22*
%TO.P,U4,2*%
%TO.N,-12V*%
X109800000Y-73733000D03*
D21*
%TO.P,U4,1*%
%TO.N,GND*%
X111300000Y-73586500D03*
%TA.AperFunction,SMDPad,CuDef*%
D20*
%TO.P,U4,2*%
%TO.N,-12V*%
G36*
X110900000Y-77308500D02*
G01*
X110300000Y-78158500D01*
X109300000Y-78158500D01*
X108700000Y-77308500D01*
X110900000Y-77308500D01*
G37*
%TD.AperFunction*%
%TD*%
D19*
%TO.P,U5,3*%
%TO.N,N/C*%
X126200000Y-71400000D03*
%TO.P,U5,2*%
%TO.N,GND*%
X124200000Y-72350000D03*
%TO.P,U5,1*%
%TO.N,REF_+5V*%
X124200000Y-70450000D03*
%TD*%
%TO.P,U6,3*%
%TO.N,N/C*%
X131800000Y-71400000D03*
%TO.P,U6,2*%
%TO.N,REF_-5V*%
X129800000Y-72350000D03*
%TO.P,U6,1*%
%TO.N,GND*%
X129800000Y-70450000D03*
%TD*%
D14*
%TO.P,J1,1*%
%TO.N,+12V*%
X98600000Y-66600000D03*
D15*
%TO.P,J1,2*%
%TO.N,GND*%
X98600000Y-69140000D03*
%TO.P,J1,3*%
%TO.N,-12V*%
X98600000Y-71680000D03*
%TD*%
%TO.P,J6,3*%
%TO.N,REF_-5V*%
X139080000Y-59200000D03*
%TO.P,J6,2*%
%TO.N,REF_2V5*%
X136540000Y-59200000D03*
D14*
%TO.P,J6,1*%
%TO.N,REF_+5V*%
X134000000Y-59200000D03*
%TD*%
D24*
%TO.P,RV1,3*%
%TO.N,GND*%
X103200000Y-101080000D03*
%TO.P,RV1,2*%
%TO.N,Net-(R7-Pad2)*%
X103200000Y-98540000D03*
%TO.P,RV1,1*%
%TO.N,Net-(RV1-Pad1)*%
X103200000Y-96000000D03*
%TD*%
%TO.P,RV2,1*%
%TO.N,Net-(RV2-Pad1)*%
X139400000Y-103200000D03*
%TO.P,RV2,2*%
%TO.N,Net-(R16-Pad1)*%
X139400000Y-105740000D03*
%TO.P,RV2,3*%
X139400000Y-108280000D03*
%TD*%
%TO.P,RV3,3*%
%TO.N,REF_2V5*%
X116940000Y-123600000D03*
%TO.P,RV3,2*%
%TO.N,Net-(R20-Pad1)*%
X114400000Y-123600000D03*
%TO.P,RV3,1*%
%TO.N,GND*%
X111860000Y-123600000D03*
%TD*%
D25*
%TO.P,C11,2*%
%TO.N,Net-(C11-Pad2)*%
X110000000Y-94200000D03*
%TO.P,C11,1*%
%TO.N,TRI_OUT*%
X110000000Y-90600000D03*
%TD*%
D15*
%TO.P,J7,3*%
%TO.N,-5V*%
X104720000Y-83800000D03*
%TO.P,J7,2*%
%TO.N,GND*%
X107260000Y-83800000D03*
D14*
%TO.P,J7,1*%
%TO.N,+5V*%
X109800000Y-83800000D03*
%TD*%
D26*
%TO.P,TP1,1*%
%TO.N,GND*%
X138000000Y-74200000D03*
%TD*%
D27*
%TO.N,GND*%
X106229999Y-94779999D03*
X115379999Y-94779999D03*
X123200000Y-95800000D03*
X123600000Y-109000000D03*
X125574483Y-106600000D03*
X129000000Y-114600000D03*
%TO.N,-12V*%
X129000000Y-66000000D03*
%TO.N,+5V*%
X113474990Y-91000000D03*
X121400000Y-94800000D03*
%TO.N,LINEAR_FM*%
X127200020Y-105800000D03*
%TO.N,PWM_CV*%
X119000000Y-101200000D03*
%TO.N,AUX2_IN*%
X114635279Y-105386352D03*
%TO.N,AUX1_IN*%
X114600000Y-104200000D03*
%TO.N,REF_2V5*%
X111600000Y-104400000D03*
X126285987Y-104559663D03*
X131200000Y-109400000D03*
X122049068Y-66150941D03*
X112200000Y-94800000D03*
%TO.N,REF_+5V*%
X122908976Y-68036169D03*
%TO.N,Net-(RV2-Pad1)*%
X130200000Y-102600000D03*
%TD*%
D28*
%TO.N,GND*%
X109593500Y-69140000D02*
X109800000Y-68933500D01*
X129649999Y-70699999D02*
X129800000Y-70850000D01*
X98799998Y-63800000D02*
X113600000Y-63800000D01*
X97249999Y-65349999D02*
X98799998Y-63800000D01*
X97249999Y-67789999D02*
X97249999Y-65349999D01*
X98600000Y-69140000D02*
X97249999Y-67789999D01*
X124050002Y-63800000D02*
X125550001Y-65299999D01*
X113600000Y-63800000D02*
X124050002Y-63800000D01*
X122349999Y-67099999D02*
X118750001Y-70699997D01*
X118750001Y-70699997D02*
X118750001Y-71399999D01*
X125250003Y-67099999D02*
X122349999Y-67099999D01*
X118750001Y-71399999D02*
X117800000Y-72350000D01*
X125550001Y-66800001D02*
X125250003Y-67099999D01*
X125550001Y-65299999D02*
X125550001Y-66800001D01*
X125150001Y-71399999D02*
X124200000Y-72350000D01*
X125150001Y-70699997D02*
X125150001Y-71399999D01*
X125550001Y-70299997D02*
X125150001Y-70699997D01*
X125550001Y-66800001D02*
X125550001Y-70299997D01*
X129649997Y-70299997D02*
X129800000Y-70450000D01*
X125550001Y-70299997D02*
X129649997Y-70299997D01*
X106229999Y-94779999D02*
X112650000Y-101200000D01*
X118550000Y-97950000D02*
X118550000Y-99200000D01*
X115379999Y-94779999D02*
X118550000Y-97950000D01*
D29*
X126474999Y-110874999D02*
X124574999Y-110874999D01*
X127400000Y-111800000D02*
X126474999Y-110874999D01*
X122200000Y-108500000D02*
X121800000Y-108500000D01*
D28*
X123800000Y-99200000D02*
X126000000Y-99200000D01*
X123800000Y-96400000D02*
X123200000Y-95800000D01*
X123800000Y-99200000D02*
X123800000Y-96400000D01*
D29*
X123350000Y-109250000D02*
X123600000Y-109000000D01*
X122950000Y-109250000D02*
X123350000Y-109250000D01*
X124574999Y-110874999D02*
X122950000Y-109250000D01*
X122950000Y-109250000D02*
X122200000Y-108500000D01*
D28*
X108300001Y-101149999D02*
X108300001Y-108850003D01*
X102614399Y-97319999D02*
X104470001Y-97319999D01*
X101979999Y-97954399D02*
X102614399Y-97319999D01*
X101979999Y-99859999D02*
X101979999Y-97954399D01*
X109249998Y-109800000D02*
X114600000Y-109800000D01*
X108300001Y-108850003D02*
X109249998Y-109800000D01*
X104470001Y-97319999D02*
X108300001Y-101149999D01*
X103200000Y-101080000D02*
X101979999Y-99859999D01*
X114600000Y-120860000D02*
X111860000Y-123600000D01*
X114600000Y-109800000D02*
X114600000Y-120860000D01*
D29*
X124250000Y-106200000D02*
X123300000Y-106200000D01*
X125174484Y-106200001D02*
X124250000Y-106200000D01*
X125574483Y-106600000D02*
X125174484Y-106200001D01*
D28*
X102340000Y-69140000D02*
X103600000Y-70400000D01*
X98600000Y-69140000D02*
X102340000Y-69140000D01*
X104860000Y-69140000D02*
X105800000Y-68200000D01*
X102340000Y-69140000D02*
X104860000Y-69140000D01*
X104860000Y-70660000D02*
X106000000Y-71800000D01*
X104860000Y-69140000D02*
X104860000Y-70660000D01*
X109066500Y-68200000D02*
X109800000Y-68933500D01*
X105800000Y-68200000D02*
X109066500Y-68200000D01*
X111300000Y-70433500D02*
X111300000Y-73586500D01*
X109800000Y-68933500D02*
X111300000Y-70433500D01*
X109800000Y-70267000D02*
X109800000Y-68933500D01*
X109800000Y-66266500D02*
X109800000Y-67523800D01*
X109800000Y-67523800D02*
X109800000Y-68933500D01*
X132150000Y-87150002D02*
X132150000Y-95200000D01*
X124200000Y-72350000D02*
X132150000Y-80300000D01*
X138000000Y-74200000D02*
X132150000Y-80050000D01*
X132150000Y-80650000D02*
X132150000Y-87150002D01*
X132150000Y-80050000D02*
X132150000Y-80650000D01*
X132150000Y-80300000D02*
X132150000Y-80650000D01*
X129000000Y-113400000D02*
X129000000Y-114600000D01*
X127400000Y-111800000D02*
X129000000Y-113400000D01*
%TO.N,+12V*%
X105400000Y-66600000D02*
X105800000Y-66200000D01*
X98600000Y-66600000D02*
X105400000Y-66600000D01*
X108220000Y-66200000D02*
X108300000Y-66120000D01*
X105800000Y-66200000D02*
X108220000Y-66200000D01*
X123150000Y-64800000D02*
X124400000Y-66050000D01*
X108966498Y-64800000D02*
X123150000Y-64800000D01*
X108300000Y-65466498D02*
X108966498Y-64800000D01*
X108300000Y-66120000D02*
X108300000Y-65466498D01*
%TO.N,-12V*%
X130750000Y-66000000D02*
X130800000Y-66050000D01*
X129000000Y-66000000D02*
X130750000Y-66000000D01*
X99320000Y-72400000D02*
X98600000Y-71680000D01*
X103600000Y-72400000D02*
X99320000Y-72400000D01*
X103600000Y-72400000D02*
X104600000Y-72400000D01*
X109800000Y-72936498D02*
X109800000Y-73733000D01*
X109200001Y-72336499D02*
X109800000Y-72936498D01*
X106936498Y-72800000D02*
X107399999Y-72336499D01*
X105000000Y-72800000D02*
X106936498Y-72800000D01*
X107399999Y-72336499D02*
X109200001Y-72336499D01*
X104600000Y-72400000D02*
X105000000Y-72800000D01*
X109800000Y-73733000D02*
X109800000Y-76400000D01*
X109800000Y-76400000D02*
X109800000Y-77733500D01*
D29*
%TO.N,TRI_OUT*%
X114600000Y-97309998D02*
X114600000Y-97200000D01*
X118300000Y-104600000D02*
X118300000Y-102700000D01*
X116600000Y-94800000D02*
X116600000Y-88800000D01*
X119600000Y-97800000D02*
X116600000Y-94800000D01*
X119600000Y-99690002D02*
X119600000Y-97800000D01*
X117300001Y-98309999D02*
X116190002Y-97200000D01*
X117300001Y-99700001D02*
X117300001Y-98309999D01*
X116190002Y-97200000D02*
X114600000Y-97200000D01*
X118300000Y-100700000D02*
X117300001Y-99700001D01*
X118300000Y-102700000D02*
X118300000Y-100700000D01*
X118300000Y-102700000D02*
X118300000Y-101400000D01*
X119600000Y-100763998D02*
X119600000Y-99690002D01*
X119800000Y-100963998D02*
X119600000Y-100763998D01*
X119800000Y-103500000D02*
X119800000Y-100963998D01*
X119600000Y-100000000D02*
X119600000Y-99690002D01*
X119109998Y-100490002D02*
X119600000Y-100000000D01*
X118509998Y-100490002D02*
X119109998Y-100490002D01*
X118300000Y-100700000D02*
X118509998Y-100490002D01*
X111100001Y-94700001D02*
X111100001Y-91700001D01*
X111100001Y-91700001D02*
X110000000Y-90600000D01*
X112674999Y-96274999D02*
X111100001Y-94700001D01*
X113674999Y-96274999D02*
X112674999Y-96274999D01*
X114600000Y-97200000D02*
X113674999Y-96274999D01*
D28*
%TO.N,+5V*%
X117950000Y-66200000D02*
X118000000Y-66250000D01*
X113280000Y-66120000D02*
X113600000Y-65800000D01*
X111300000Y-66120000D02*
X113280000Y-66120000D01*
X117550000Y-65800000D02*
X118000000Y-66250000D01*
X113600000Y-65800000D02*
X117550000Y-65800000D01*
D29*
X121800000Y-99200000D02*
X121350010Y-99649990D01*
X121350010Y-103450010D02*
X121400000Y-103500000D01*
X121350010Y-99649990D02*
X121350010Y-103450010D01*
D28*
X113600000Y-65800000D02*
X113474990Y-65925010D01*
X121800000Y-99200000D02*
X121799999Y-95199999D01*
X121799999Y-95199999D02*
X121400000Y-94800000D01*
X109800000Y-81800000D02*
X113474990Y-78125010D01*
X109800000Y-83800000D02*
X109800000Y-81800000D01*
X113474990Y-78125010D02*
X113474990Y-91000000D01*
X113474990Y-65925010D02*
X113474990Y-78125010D01*
%TO.N,-5V*%
X108086500Y-73800000D02*
X106000000Y-73800000D01*
X108300000Y-73586500D02*
X108086500Y-73800000D01*
D30*
X118300000Y-108850000D02*
X118300000Y-107425010D01*
X117350000Y-109800000D02*
X118300000Y-108850000D01*
X116600000Y-109800000D02*
X117350000Y-109800000D01*
D28*
X116600000Y-117800000D02*
X116600000Y-109800000D01*
X119200000Y-120400000D02*
X116600000Y-117800000D01*
X110641998Y-128200000D02*
X117600000Y-128200000D01*
X101049999Y-118608001D02*
X110641998Y-128200000D01*
X101049999Y-78750001D02*
X101049999Y-118608001D01*
X119200000Y-126600000D02*
X119200000Y-120400000D01*
X117600000Y-128200000D02*
X119200000Y-126600000D01*
X106000000Y-73800000D02*
X101049999Y-78750001D01*
X104720000Y-75080000D02*
X106000000Y-73800000D01*
X104720000Y-83800000D02*
X104720000Y-75080000D01*
D29*
%TO.N,Net-(C8-Pad1)*%
X121400000Y-108500000D02*
X121400000Y-109400000D01*
X123800000Y-111800000D02*
X125400000Y-111800000D01*
X121400000Y-109400000D02*
X123800000Y-111800000D01*
D30*
%TO.N,Net-(C9-Pad1)*%
X125950000Y-101250000D02*
X128000000Y-99200000D01*
X125950000Y-101800000D02*
X125950000Y-101250000D01*
D29*
%TO.N,Net-(C10-Pad1)*%
X127800000Y-107400000D02*
X128600000Y-106600000D01*
X125165698Y-107400000D02*
X127800000Y-107400000D01*
X124365690Y-106599992D02*
X125165698Y-107400000D01*
X128600000Y-106600000D02*
X128600000Y-105200000D01*
X124290002Y-106600000D02*
X123300000Y-106600000D01*
X124290010Y-106599992D02*
X124290002Y-106600000D01*
X124365690Y-106599992D02*
X124290010Y-106599992D01*
%TO.N,SOFT_SYNC*%
X138000000Y-97800000D02*
X138000000Y-93560000D01*
X130600000Y-105200000D02*
X138000000Y-97800000D01*
D30*
%TO.N,FREQ_CV*%
X103650000Y-107800000D02*
X107450000Y-104000000D01*
X102400000Y-107800000D02*
X103650000Y-107800000D01*
%TO.N,EXPO_MOD*%
X106740000Y-106000000D02*
X107450000Y-106000000D01*
X102400000Y-110340000D02*
X106740000Y-106000000D01*
D29*
%TO.N,LINEAR_FM*%
X123300000Y-105800000D02*
X127200020Y-105800000D01*
D30*
%TO.N,TUNE*%
X107450000Y-110370000D02*
X107450000Y-108000000D01*
X102400000Y-115420000D02*
X107450000Y-110370000D01*
D29*
%TO.N,PWM_CV*%
X119400000Y-101600000D02*
X119400000Y-103500000D01*
X119000000Y-101200000D02*
X119400000Y-101600000D01*
D30*
%TO.N,MIX_TRI_CV*%
X118600000Y-117000000D02*
X118600000Y-115950000D01*
X123400000Y-121800000D02*
X118600000Y-117000000D01*
X123400000Y-125600000D02*
X123400000Y-121800000D01*
%TO.N,MIX_SAW_CV*%
X120800000Y-116600000D02*
X120800000Y-115950000D01*
X125940000Y-121740000D02*
X120800000Y-116600000D01*
X125940000Y-125600000D02*
X125940000Y-121740000D01*
%TO.N,MIX_PULSE_CV*%
X123000000Y-116200000D02*
X123000000Y-115950000D01*
X128480000Y-121680000D02*
X123000000Y-116200000D01*
X128480000Y-125600000D02*
X128480000Y-121680000D01*
%TO.N,MIX_AUX1_CV*%
X131020000Y-121770000D02*
X125200000Y-115950000D01*
X131020000Y-125600000D02*
X131020000Y-121770000D01*
%TO.N,MIX_AUX2_CV*%
X133560000Y-122110000D02*
X133560000Y-125600000D01*
X127400000Y-115950000D02*
X133560000Y-122110000D01*
D29*
%TO.N,TRI_REVERSE*%
X136800000Y-97000000D02*
X136800000Y-92220000D01*
X129600000Y-106600000D02*
X129600000Y-104200000D01*
X136800000Y-92220000D02*
X138000000Y-91020000D01*
X128400000Y-107800000D02*
X129600000Y-106600000D01*
X129600000Y-104200000D02*
X136800000Y-97000000D01*
X125000000Y-107800000D02*
X128400000Y-107800000D01*
X124200000Y-107000000D02*
X125000000Y-107800000D01*
X123300000Y-107000000D02*
X124200000Y-107000000D01*
%TO.N,HARD_SYNC*%
X139200000Y-89680000D02*
X138000000Y-88480000D01*
X139200000Y-98265002D02*
X139200000Y-89680000D01*
X129065002Y-108400000D02*
X139200000Y-98265002D01*
X124300000Y-108400000D02*
X129065002Y-108400000D01*
X123300000Y-107400000D02*
X124300000Y-108400000D01*
%TO.N,AUX2_IN*%
X115448927Y-106200000D02*
X114635279Y-105386352D01*
X118300000Y-106200000D02*
X115448927Y-106200000D01*
%TO.N,AUX1_IN*%
X116200000Y-105800000D02*
X114600000Y-104200000D01*
X118300000Y-105800000D02*
X116200000Y-105800000D01*
%TO.N,MIX_OUT*%
X130250000Y-99040002D02*
X130250000Y-95200000D01*
X125790002Y-103500000D02*
X130250000Y-99040002D01*
X122200000Y-103500000D02*
X125790002Y-103500000D01*
X130250000Y-89750000D02*
X129300000Y-88800000D01*
X130250000Y-95200000D02*
X130250000Y-89750000D01*
%TO.N,SINE_OUT*%
X127960000Y-87600000D02*
X126760000Y-88800000D01*
X130000000Y-87600000D02*
X127960000Y-87600000D01*
X130900001Y-88500001D02*
X130000000Y-87600000D01*
X130900001Y-98955699D02*
X130900001Y-88500001D01*
X125255700Y-104600000D02*
X130900001Y-98955699D01*
X123300000Y-104600000D02*
X125255700Y-104600000D01*
%TO.N,SQUARE_OUT*%
X120749998Y-92270002D02*
X124220000Y-88800000D01*
X120749998Y-95112002D02*
X120749998Y-92270002D01*
X121000000Y-95362004D02*
X120749998Y-95112002D01*
X121000000Y-103500000D02*
X121000000Y-95362004D01*
%TO.N,SAW_OUT*%
X121000000Y-88800000D02*
X121680000Y-88800000D01*
X120399987Y-90080013D02*
X121680000Y-88800000D01*
X120600000Y-103500000D02*
X120600000Y-95456994D01*
X120600000Y-95456994D02*
X120399987Y-95256981D01*
X120399987Y-95256981D02*
X120399987Y-90080013D01*
%TO.N,PULSE_OUT*%
X117600000Y-90340000D02*
X119140000Y-88800000D01*
X117600000Y-95000000D02*
X117600000Y-90340000D01*
X120200000Y-97600000D02*
X117600000Y-95000000D01*
X120200000Y-103500000D02*
X120200000Y-97600000D01*
D30*
%TO.N,REF_-5V*%
X129800000Y-71885002D02*
X129800000Y-72350000D01*
X130800000Y-70885002D02*
X129800000Y-71885002D01*
X130800000Y-67950000D02*
X130800000Y-70885002D01*
X139080000Y-59670000D02*
X139080000Y-59200000D01*
X130800000Y-67950000D02*
X139080000Y-59670000D01*
%TO.N,REF_2V5*%
X118000000Y-70250000D02*
X117800000Y-70450000D01*
X118000000Y-68150000D02*
X118000000Y-70250000D01*
X111600000Y-107150000D02*
X111650000Y-107200000D01*
X111600000Y-104400000D02*
X111600000Y-107150000D01*
D29*
X126200000Y-105000000D02*
X123300000Y-105000000D01*
X126285987Y-104914013D02*
X126200000Y-105000000D01*
X126285987Y-104559663D02*
X126285987Y-104914013D01*
D30*
X132050000Y-109400000D02*
X132450000Y-109800000D01*
X131200000Y-109400000D02*
X132050000Y-109400000D01*
X118000000Y-68150000D02*
X120050009Y-68150000D01*
X120050009Y-68150000D02*
X122049068Y-66150941D01*
X118000000Y-68150000D02*
X117100000Y-68150000D01*
X114200000Y-92800000D02*
X112200000Y-94800000D01*
X117100000Y-68150000D02*
X114200000Y-71050000D01*
X114200000Y-71050000D02*
X114200000Y-92800000D01*
%TO.N,REF_+5V*%
X124400000Y-70450000D02*
X124200000Y-70650000D01*
X124400000Y-70250000D02*
X124200000Y-70450000D01*
X124400000Y-67950000D02*
X124400000Y-70250000D01*
X124400000Y-67950000D02*
X122995145Y-67950000D01*
X122995145Y-67950000D02*
X122908976Y-68036169D01*
D29*
%TO.N,Net-(R2-Pad1)*%
X115200001Y-99850001D02*
X114550000Y-99200000D01*
X115200001Y-102890003D02*
X115200001Y-99850001D01*
X114550000Y-99200000D02*
X116650000Y-99200000D01*
X117309998Y-105000000D02*
X118300000Y-105000000D01*
X115200001Y-102890003D02*
X117309998Y-105000000D01*
%TO.N,Net-(R3-Pad1)*%
X116888002Y-105400000D02*
X118300000Y-105400000D01*
X114550000Y-103061998D02*
X116888002Y-105400000D01*
X114550000Y-101200000D02*
X114550000Y-103061998D01*
%TO.N,Net-(R19-Pad2)*%
X109350000Y-108000000D02*
X109350000Y-106000000D01*
X109350000Y-104000000D02*
X109350000Y-106000000D01*
X110150000Y-108000000D02*
X111000000Y-108850000D01*
X109350000Y-108000000D02*
X110150000Y-108000000D01*
X111900000Y-108850000D02*
X113550000Y-107200000D01*
X111000000Y-108850000D02*
X111900000Y-108850000D01*
X113750000Y-107000000D02*
X113550000Y-107200000D01*
X118300000Y-107000000D02*
X113750000Y-107000000D01*
X109350000Y-102200000D02*
X109350000Y-104000000D01*
D30*
%TO.N,Net-(R7-Pad2)*%
X106860000Y-102200000D02*
X107450000Y-102200000D01*
X103200000Y-98540000D02*
X106860000Y-102200000D01*
D29*
%TO.N,Net-(R9-Pad2)*%
X118600000Y-109300000D02*
X119400000Y-108500000D01*
X118600000Y-114050000D02*
X118600000Y-109300000D01*
%TO.N,Net-(R10-Pad2)*%
X120800000Y-111600000D02*
X120800000Y-114050000D01*
X119800000Y-110600000D02*
X120800000Y-111600000D01*
X119800000Y-108500000D02*
X119800000Y-110600000D01*
%TO.N,Net-(R11-Pad2)*%
X123000000Y-113200000D02*
X123000000Y-114050000D01*
X120200000Y-110400000D02*
X123000000Y-113200000D01*
X120200000Y-108500000D02*
X120200000Y-110400000D01*
%TO.N,Net-(R12-Pad2)*%
X120600000Y-110200000D02*
X124450000Y-114050000D01*
X124450000Y-114050000D02*
X125200000Y-114050000D01*
X120600000Y-108500000D02*
X120600000Y-110200000D01*
%TO.N,Net-(R13-Pad2)*%
X126750000Y-113400000D02*
X127400000Y-114050000D01*
X124400000Y-113400000D02*
X126750000Y-113400000D01*
X121000000Y-110000000D02*
X124400000Y-113400000D01*
X121000000Y-108500000D02*
X121000000Y-110000000D01*
%TO.N,Net-(R14-Pad1)*%
X122509998Y-101800000D02*
X124050000Y-101800000D01*
X121800000Y-102509998D02*
X121800000Y-103500000D01*
X122509998Y-101800000D02*
X121800000Y-102509998D01*
D30*
%TO.N,Net-(R16-Pad1)*%
X137880000Y-109800000D02*
X139400000Y-108280000D01*
X134350000Y-109800000D02*
X137880000Y-109800000D01*
X139400000Y-108280000D02*
X139400000Y-105740000D01*
%TO.N,Net-(R20-Pad1)*%
X110814999Y-110935001D02*
X111000000Y-110750000D01*
X110814999Y-124101601D02*
X110814999Y-110935001D01*
X111358399Y-124645001D02*
X110814999Y-124101601D01*
X113354999Y-124645001D02*
X111358399Y-124645001D01*
X114400000Y-123600000D02*
X113354999Y-124645001D01*
D29*
%TO.N,Net-(RV1-Pad1)*%
X104218233Y-96000000D02*
X103200000Y-96000000D01*
X113300001Y-104482000D02*
X104818001Y-96000000D01*
X104818001Y-96000000D02*
X104218233Y-96000000D01*
X114812925Y-106600000D02*
X113300001Y-105087076D01*
X118300000Y-106600000D02*
X114812925Y-106600000D01*
X113300001Y-105087076D02*
X113300001Y-104482000D01*
%TO.N,Net-(RV2-Pad1)*%
X129400000Y-102600000D02*
X130200000Y-102600000D01*
X126600000Y-105400000D02*
X129400000Y-102600000D01*
X123300000Y-105400000D02*
X126600000Y-105400000D01*
%TO.N,Net-(C11-Pad2)*%
X112600000Y-99150000D02*
X112650000Y-99200000D01*
X112600000Y-97200000D02*
X112600000Y-99150000D01*
D30*
X110000000Y-94600000D02*
X110000000Y-94200000D01*
X112600000Y-97200000D02*
X110000000Y-94600000D01*
%TD*%
M02*
