%TF.GenerationSoftware,KiCad,Pcbnew,5.1.6-c6e7f7d~87~ubuntu20.04.1*%
%TF.CreationDate,2020-11-07T15:56:43+00:00*%
%TF.ProjectId,ssi2130_vco,73736932-3133-4305-9f76-636f2e6b6963,1.1*%
%TF.SameCoordinates,Original*%
%TF.FileFunction,Legend,Top*%
%TF.FilePolarity,Positive*%
%FSLAX46Y46*%
G04 Gerber Fmt 4.6, Leading zero omitted, Abs format (unit mm)*
G04 Created by KiCad (PCBNEW 5.1.6-c6e7f7d~87~ubuntu20.04.1) date 2020-11-07 15:56:43*
%MOMM*%
%LPD*%
G01*
G04 APERTURE LIST*
%ADD10C,0.300000*%
%ADD11C,0.120000*%
%ADD12C,0.150000*%
%ADD13C,0.100000*%
G04 APERTURE END LIST*
D10*
X133650000Y-123319285D02*
X133650000Y-122605000D01*
X134078571Y-123462142D02*
X132578571Y-122962142D01*
X134078571Y-122462142D01*
X132721428Y-122033571D02*
X132650000Y-121962142D01*
X132578571Y-121819285D01*
X132578571Y-121462142D01*
X132650000Y-121319285D01*
X132721428Y-121247857D01*
X132864285Y-121176428D01*
X133007142Y-121176428D01*
X133221428Y-121247857D01*
X134078571Y-122105000D01*
X134078571Y-121176428D01*
X131250000Y-123319285D02*
X131250000Y-122605000D01*
X131678571Y-123462142D02*
X130178571Y-122962142D01*
X131678571Y-122462142D01*
X131678571Y-121176428D02*
X131678571Y-122033571D01*
X131678571Y-121605000D02*
X130178571Y-121605000D01*
X130392857Y-121747857D01*
X130535714Y-121890714D01*
X130607142Y-122033571D01*
X129278571Y-123447857D02*
X127778571Y-123447857D01*
X127778571Y-122876428D01*
X127850000Y-122733571D01*
X127921428Y-122662142D01*
X128064285Y-122590714D01*
X128278571Y-122590714D01*
X128421428Y-122662142D01*
X128492857Y-122733571D01*
X128564285Y-122876428D01*
X128564285Y-123447857D01*
X129278571Y-121233571D02*
X129278571Y-121947857D01*
X127778571Y-121947857D01*
X126407142Y-123519285D02*
X126478571Y-123305000D01*
X126478571Y-122947857D01*
X126407142Y-122805000D01*
X126335714Y-122733571D01*
X126192857Y-122662142D01*
X126050000Y-122662142D01*
X125907142Y-122733571D01*
X125835714Y-122805000D01*
X125764285Y-122947857D01*
X125692857Y-123233571D01*
X125621428Y-123376428D01*
X125550000Y-123447857D01*
X125407142Y-123519285D01*
X125264285Y-123519285D01*
X125121428Y-123447857D01*
X125050000Y-123376428D01*
X124978571Y-123233571D01*
X124978571Y-122876428D01*
X125050000Y-122662142D01*
X124978571Y-122162142D02*
X126478571Y-121805000D01*
X125407142Y-121519285D01*
X126478571Y-121233571D01*
X124978571Y-120876428D01*
X122578571Y-123609285D02*
X122578571Y-122752142D01*
X124078571Y-123180714D02*
X122578571Y-123180714D01*
X124078571Y-121395000D02*
X123364285Y-121895000D01*
X124078571Y-122252142D02*
X122578571Y-122252142D01*
X122578571Y-121680714D01*
X122650000Y-121537857D01*
X122721428Y-121466428D01*
X122864285Y-121395000D01*
X123078571Y-121395000D01*
X123221428Y-121466428D01*
X123292857Y-121537857D01*
X123364285Y-121680714D01*
X123364285Y-122252142D01*
X124078571Y-120752142D02*
X122578571Y-120752142D01*
X135828571Y-125203571D02*
X135828571Y-123703571D01*
X136328571Y-124775000D01*
X136828571Y-123703571D01*
X136828571Y-125203571D01*
X137542857Y-125203571D02*
X137542857Y-123703571D01*
X138114285Y-123703571D02*
X139114285Y-125203571D01*
X139114285Y-123703571D02*
X138114285Y-125203571D01*
X137221428Y-127610714D02*
X137150000Y-127682142D01*
X136935714Y-127753571D01*
X136792857Y-127753571D01*
X136578571Y-127682142D01*
X136435714Y-127539285D01*
X136364285Y-127396428D01*
X136292857Y-127110714D01*
X136292857Y-126896428D01*
X136364285Y-126610714D01*
X136435714Y-126467857D01*
X136578571Y-126325000D01*
X136792857Y-126253571D01*
X136935714Y-126253571D01*
X137150000Y-126325000D01*
X137221428Y-126396428D01*
X137650000Y-126253571D02*
X138150000Y-127753571D01*
X138650000Y-126253571D01*
X109178571Y-81795000D02*
X110678571Y-81295000D01*
X109178571Y-80795000D01*
X110107142Y-80295000D02*
X110107142Y-79152142D01*
X103978571Y-81795000D02*
X105478571Y-81295000D01*
X103978571Y-80795000D01*
X104907142Y-80295000D02*
X104907142Y-79152142D01*
X105478571Y-79723571D02*
X104335714Y-79723571D01*
X106650000Y-80942857D02*
X106578571Y-81085714D01*
X106578571Y-81300000D01*
X106650000Y-81514285D01*
X106792857Y-81657142D01*
X106935714Y-81728571D01*
X107221428Y-81800000D01*
X107435714Y-81800000D01*
X107721428Y-81728571D01*
X107864285Y-81657142D01*
X108007142Y-81514285D01*
X108078571Y-81300000D01*
X108078571Y-81157142D01*
X108007142Y-80942857D01*
X107935714Y-80871428D01*
X107435714Y-80871428D01*
X107435714Y-81157142D01*
X108078571Y-80228571D02*
X106578571Y-80228571D01*
X108078571Y-79371428D01*
X106578571Y-79371428D01*
X108078571Y-78657142D02*
X106578571Y-78657142D01*
X106578571Y-78300000D01*
X106650000Y-78085714D01*
X106792857Y-77942857D01*
X106935714Y-77871428D01*
X107221428Y-77800000D01*
X107435714Y-77800000D01*
X107721428Y-77871428D01*
X107864285Y-77942857D01*
X108007142Y-78085714D01*
X108078571Y-78300000D01*
X108078571Y-78657142D01*
X141457142Y-73450000D02*
X141314285Y-73378571D01*
X141100000Y-73378571D01*
X140885714Y-73450000D01*
X140742857Y-73592857D01*
X140671428Y-73735714D01*
X140600000Y-74021428D01*
X140600000Y-74235714D01*
X140671428Y-74521428D01*
X140742857Y-74664285D01*
X140885714Y-74807142D01*
X141100000Y-74878571D01*
X141242857Y-74878571D01*
X141457142Y-74807142D01*
X141528571Y-74735714D01*
X141528571Y-74235714D01*
X141242857Y-74235714D01*
X142171428Y-74878571D02*
X142171428Y-73378571D01*
X143028571Y-74878571D01*
X143028571Y-73378571D01*
X143742857Y-74878571D02*
X143742857Y-73378571D01*
X144100000Y-73378571D01*
X144314285Y-73450000D01*
X144457142Y-73592857D01*
X144528571Y-73735714D01*
X144600000Y-74021428D01*
X144600000Y-74235714D01*
X144528571Y-74521428D01*
X144457142Y-74664285D01*
X144314285Y-74807142D01*
X144100000Y-74878571D01*
X143742857Y-74878571D01*
X108971428Y-129600000D02*
X108914285Y-129542857D01*
X108799999Y-129371428D01*
X108742857Y-129257142D01*
X108685714Y-129085714D01*
X108628571Y-128800000D01*
X108628571Y-128571428D01*
X108685714Y-128285714D01*
X108742857Y-128114285D01*
X108799999Y-128000000D01*
X108914285Y-127828571D01*
X108971428Y-127771428D01*
X109942857Y-129085714D02*
X109828571Y-129142857D01*
X109599999Y-129142857D01*
X109485714Y-129085714D01*
X109428571Y-129028571D01*
X109371428Y-128914285D01*
X109371428Y-128571428D01*
X109428571Y-128457142D01*
X109485714Y-128400000D01*
X109599999Y-128342857D01*
X109828571Y-128342857D01*
X109942857Y-128400000D01*
X110342857Y-129600000D02*
X110399999Y-129542857D01*
X110514285Y-129371428D01*
X110571428Y-129257142D01*
X110628571Y-129085714D01*
X110685714Y-128800000D01*
X110685714Y-128571428D01*
X110628571Y-128285714D01*
X110571428Y-128114285D01*
X110514285Y-128000000D01*
X110399999Y-127828571D01*
X110342857Y-127771428D01*
X112114285Y-128057142D02*
X112171428Y-128000000D01*
X112285714Y-127942857D01*
X112571428Y-127942857D01*
X112685714Y-128000000D01*
X112742857Y-128057142D01*
X112799999Y-128171428D01*
X112799999Y-128285714D01*
X112742857Y-128457142D01*
X112057142Y-129142857D01*
X112799999Y-129142857D01*
X113542857Y-127942857D02*
X113657142Y-127942857D01*
X113771428Y-128000000D01*
X113828571Y-128057142D01*
X113885714Y-128171428D01*
X113942857Y-128400000D01*
X113942857Y-128685714D01*
X113885714Y-128914285D01*
X113828571Y-129028571D01*
X113771428Y-129085714D01*
X113657142Y-129142857D01*
X113542857Y-129142857D01*
X113428571Y-129085714D01*
X113371428Y-129028571D01*
X113314285Y-128914285D01*
X113257142Y-128685714D01*
X113257142Y-128400000D01*
X113314285Y-128171428D01*
X113371428Y-128057142D01*
X113428571Y-128000000D01*
X113542857Y-127942857D01*
X114399999Y-128057142D02*
X114457142Y-128000000D01*
X114571428Y-127942857D01*
X114857142Y-127942857D01*
X114971428Y-128000000D01*
X115028571Y-128057142D01*
X115085714Y-128171428D01*
X115085714Y-128285714D01*
X115028571Y-128457142D01*
X114342857Y-129142857D01*
X115085714Y-129142857D01*
X115828571Y-127942857D02*
X115942857Y-127942857D01*
X116057142Y-128000000D01*
X116114285Y-128057142D01*
X116171428Y-128171428D01*
X116228571Y-128400000D01*
X116228571Y-128685714D01*
X116171428Y-128914285D01*
X116114285Y-129028571D01*
X116057142Y-129085714D01*
X115942857Y-129142857D01*
X115828571Y-129142857D01*
X115714285Y-129085714D01*
X115657142Y-129028571D01*
X115599999Y-128914285D01*
X115542857Y-128685714D01*
X115542857Y-128400000D01*
X115599999Y-128171428D01*
X115657142Y-128057142D01*
X115714285Y-128000000D01*
X115828571Y-127942857D01*
X117657142Y-129142857D02*
X117657142Y-127942857D01*
X118342857Y-129142857D01*
X118342857Y-127942857D01*
X118914285Y-129142857D02*
X118914285Y-128342857D01*
X118914285Y-127942857D02*
X118857142Y-128000000D01*
X118914285Y-128057142D01*
X118971428Y-128000000D01*
X118914285Y-127942857D01*
X118914285Y-128057142D01*
X119999999Y-129085714D02*
X119885714Y-129142857D01*
X119657142Y-129142857D01*
X119542857Y-129085714D01*
X119485714Y-129028571D01*
X119428571Y-128914285D01*
X119428571Y-128571428D01*
X119485714Y-128457142D01*
X119542857Y-128400000D01*
X119657142Y-128342857D01*
X119885714Y-128342857D01*
X119999999Y-128400000D01*
X120514285Y-129142857D02*
X120514285Y-127942857D01*
X121028571Y-129142857D02*
X121028571Y-128514285D01*
X120971428Y-128400000D01*
X120857142Y-128342857D01*
X120685714Y-128342857D01*
X120571428Y-128400000D01*
X120514285Y-128457142D01*
X121771428Y-129142857D02*
X121657142Y-129085714D01*
X121599999Y-129028571D01*
X121542857Y-128914285D01*
X121542857Y-128571428D01*
X121599999Y-128457142D01*
X121657142Y-128400000D01*
X121771428Y-128342857D01*
X121942857Y-128342857D01*
X122057142Y-128400000D01*
X122114285Y-128457142D01*
X122171428Y-128571428D01*
X122171428Y-128914285D01*
X122114285Y-129028571D01*
X122057142Y-129085714D01*
X121942857Y-129142857D01*
X121771428Y-129142857D01*
X122857142Y-129142857D02*
X122742857Y-129085714D01*
X122685714Y-128971428D01*
X122685714Y-127942857D01*
X123828571Y-129142857D02*
X123828571Y-128514285D01*
X123771428Y-128400000D01*
X123657142Y-128342857D01*
X123428571Y-128342857D01*
X123314285Y-128400000D01*
X123828571Y-129085714D02*
X123714285Y-129142857D01*
X123428571Y-129142857D01*
X123314285Y-129085714D01*
X123257142Y-128971428D01*
X123257142Y-128857142D01*
X123314285Y-128742857D01*
X123428571Y-128685714D01*
X123714285Y-128685714D01*
X123828571Y-128628571D01*
X124342857Y-129085714D02*
X124457142Y-129142857D01*
X124685714Y-129142857D01*
X124799999Y-129085714D01*
X124857142Y-128971428D01*
X124857142Y-128914285D01*
X124799999Y-128800000D01*
X124685714Y-128742857D01*
X124514285Y-128742857D01*
X124399999Y-128685714D01*
X124342857Y-128571428D01*
X124342857Y-128514285D01*
X124399999Y-128400000D01*
X124514285Y-128342857D01*
X124685714Y-128342857D01*
X124799999Y-128400000D01*
X126285714Y-129142857D02*
X126285714Y-127942857D01*
X126685714Y-128800000D01*
X127085714Y-127942857D01*
X127085714Y-129142857D01*
X127657142Y-129028571D02*
X127714285Y-129085714D01*
X127657142Y-129142857D01*
X127599999Y-129085714D01*
X127657142Y-129028571D01*
X127657142Y-129142857D01*
X128971428Y-127942857D02*
X129657142Y-127942857D01*
X129314285Y-129142857D02*
X129314285Y-127942857D01*
X130571428Y-128342857D02*
X130571428Y-129142857D01*
X130057142Y-128342857D02*
X130057142Y-128971428D01*
X130114285Y-129085714D01*
X130228571Y-129142857D01*
X130399999Y-129142857D01*
X130514285Y-129085714D01*
X130571428Y-129028571D01*
X131657142Y-129085714D02*
X131542857Y-129142857D01*
X131314285Y-129142857D01*
X131199999Y-129085714D01*
X131142857Y-129028571D01*
X131085714Y-128914285D01*
X131085714Y-128571428D01*
X131142857Y-128457142D01*
X131199999Y-128400000D01*
X131314285Y-128342857D01*
X131542857Y-128342857D01*
X131657142Y-128400000D01*
X132171428Y-129142857D02*
X132171428Y-127942857D01*
X132285714Y-128685714D02*
X132628571Y-129142857D01*
X132628571Y-128342857D02*
X132171428Y-128800000D01*
X133599999Y-129085714D02*
X133485714Y-129142857D01*
X133257142Y-129142857D01*
X133142857Y-129085714D01*
X133085714Y-128971428D01*
X133085714Y-128514285D01*
X133142857Y-128400000D01*
X133257142Y-128342857D01*
X133485714Y-128342857D01*
X133599999Y-128400000D01*
X133657142Y-128514285D01*
X133657142Y-128628571D01*
X133085714Y-128742857D01*
X133999999Y-128342857D02*
X134457142Y-128342857D01*
X134171428Y-127942857D02*
X134171428Y-128971428D01*
X134228571Y-129085714D01*
X134342857Y-129142857D01*
X134457142Y-129142857D01*
X134685714Y-128342857D02*
X135142857Y-128342857D01*
X134857142Y-127942857D02*
X134857142Y-128971428D01*
X134914285Y-129085714D01*
X135028571Y-129142857D01*
X135142857Y-129142857D01*
X101480714Y-60207142D02*
X101695000Y-60278571D01*
X102052142Y-60278571D01*
X102195000Y-60207142D01*
X102266428Y-60135714D01*
X102337857Y-59992857D01*
X102337857Y-59850000D01*
X102266428Y-59707142D01*
X102195000Y-59635714D01*
X102052142Y-59564285D01*
X101766428Y-59492857D01*
X101623571Y-59421428D01*
X101552142Y-59350000D01*
X101480714Y-59207142D01*
X101480714Y-59064285D01*
X101552142Y-58921428D01*
X101623571Y-58850000D01*
X101766428Y-58778571D01*
X102123571Y-58778571D01*
X102337857Y-58850000D01*
X102909285Y-60207142D02*
X103123571Y-60278571D01*
X103480714Y-60278571D01*
X103623571Y-60207142D01*
X103695000Y-60135714D01*
X103766428Y-59992857D01*
X103766428Y-59850000D01*
X103695000Y-59707142D01*
X103623571Y-59635714D01*
X103480714Y-59564285D01*
X103195000Y-59492857D01*
X103052142Y-59421428D01*
X102980714Y-59350000D01*
X102909285Y-59207142D01*
X102909285Y-59064285D01*
X102980714Y-58921428D01*
X103052142Y-58850000D01*
X103195000Y-58778571D01*
X103552142Y-58778571D01*
X103766428Y-58850000D01*
X104409285Y-60278571D02*
X104409285Y-58778571D01*
X105052142Y-58921428D02*
X105123571Y-58850000D01*
X105266428Y-58778571D01*
X105623571Y-58778571D01*
X105766428Y-58850000D01*
X105837857Y-58921428D01*
X105909285Y-59064285D01*
X105909285Y-59207142D01*
X105837857Y-59421428D01*
X104980714Y-60278571D01*
X105909285Y-60278571D01*
X107337857Y-60278571D02*
X106480714Y-60278571D01*
X106909285Y-60278571D02*
X106909285Y-58778571D01*
X106766428Y-58992857D01*
X106623571Y-59135714D01*
X106480714Y-59207142D01*
X107837857Y-58778571D02*
X108766428Y-58778571D01*
X108266428Y-59350000D01*
X108480714Y-59350000D01*
X108623571Y-59421428D01*
X108695000Y-59492857D01*
X108766428Y-59635714D01*
X108766428Y-59992857D01*
X108695000Y-60135714D01*
X108623571Y-60207142D01*
X108480714Y-60278571D01*
X108052142Y-60278571D01*
X107909285Y-60207142D01*
X107837857Y-60135714D01*
X109695000Y-58778571D02*
X109837857Y-58778571D01*
X109980714Y-58850000D01*
X110052142Y-58921428D01*
X110123571Y-59064285D01*
X110195000Y-59350000D01*
X110195000Y-59707142D01*
X110123571Y-59992857D01*
X110052142Y-60135714D01*
X109980714Y-60207142D01*
X109837857Y-60278571D01*
X109695000Y-60278571D01*
X109552142Y-60207142D01*
X109480714Y-60135714D01*
X109409285Y-59992857D01*
X109337857Y-59707142D01*
X109337857Y-59350000D01*
X109409285Y-59064285D01*
X109480714Y-58921428D01*
X109552142Y-58850000D01*
X109695000Y-58778571D01*
X111980714Y-59492857D02*
X112480714Y-59492857D01*
X112695000Y-60278571D02*
X111980714Y-60278571D01*
X111980714Y-58778571D01*
X112695000Y-58778571D01*
X113195000Y-59278571D02*
X113552142Y-60278571D01*
X113909285Y-59278571D01*
X115123571Y-60278571D02*
X115123571Y-59492857D01*
X115052142Y-59350000D01*
X114909285Y-59278571D01*
X114623571Y-59278571D01*
X114480714Y-59350000D01*
X115123571Y-60207142D02*
X114980714Y-60278571D01*
X114623571Y-60278571D01*
X114480714Y-60207142D01*
X114409285Y-60064285D01*
X114409285Y-59921428D01*
X114480714Y-59778571D01*
X114623571Y-59707142D01*
X114980714Y-59707142D01*
X115123571Y-59635714D01*
X116052142Y-60278571D02*
X115909285Y-60207142D01*
X115837857Y-60064285D01*
X115837857Y-58778571D01*
X118623571Y-60278571D02*
X118123571Y-59564285D01*
X117766428Y-60278571D02*
X117766428Y-58778571D01*
X118337857Y-58778571D01*
X118480714Y-58850000D01*
X118552142Y-58921428D01*
X118623571Y-59064285D01*
X118623571Y-59278571D01*
X118552142Y-59421428D01*
X118480714Y-59492857D01*
X118337857Y-59564285D01*
X117766428Y-59564285D01*
X119837857Y-60207142D02*
X119695000Y-60278571D01*
X119409285Y-60278571D01*
X119266428Y-60207142D01*
X119195000Y-60064285D01*
X119195000Y-59492857D01*
X119266428Y-59350000D01*
X119409285Y-59278571D01*
X119695000Y-59278571D01*
X119837857Y-59350000D01*
X119909285Y-59492857D01*
X119909285Y-59635714D01*
X119195000Y-59778571D01*
X120409285Y-59278571D02*
X120766428Y-60278571D01*
X121123571Y-59278571D01*
X123623571Y-60278571D02*
X122766428Y-60278571D01*
X123195000Y-60278571D02*
X123195000Y-58778571D01*
X123052142Y-58992857D01*
X122909285Y-59135714D01*
X122766428Y-59207142D01*
X124266428Y-60135714D02*
X124337857Y-60207142D01*
X124266428Y-60278571D01*
X124195000Y-60207142D01*
X124266428Y-60135714D01*
X124266428Y-60278571D01*
X125766428Y-60278571D02*
X124909285Y-60278571D01*
X125337857Y-60278571D02*
X125337857Y-58778571D01*
X125195000Y-58992857D01*
X125052142Y-59135714D01*
X124909285Y-59207142D01*
X100850000Y-70342857D02*
X100778571Y-70485714D01*
X100778571Y-70700000D01*
X100850000Y-70914285D01*
X100992857Y-71057142D01*
X101135714Y-71128571D01*
X101421428Y-71200000D01*
X101635714Y-71200000D01*
X101921428Y-71128571D01*
X102064285Y-71057142D01*
X102207142Y-70914285D01*
X102278571Y-70700000D01*
X102278571Y-70557142D01*
X102207142Y-70342857D01*
X102135714Y-70271428D01*
X101635714Y-70271428D01*
X101635714Y-70557142D01*
X102278571Y-69628571D02*
X100778571Y-69628571D01*
X102278571Y-68771428D01*
X100778571Y-68771428D01*
X102278571Y-68057142D02*
X100778571Y-68057142D01*
X100778571Y-67700000D01*
X100850000Y-67485714D01*
X100992857Y-67342857D01*
X101135714Y-67271428D01*
X101421428Y-67200000D01*
X101635714Y-67200000D01*
X101921428Y-67271428D01*
X102064285Y-67342857D01*
X102207142Y-67485714D01*
X102278571Y-67700000D01*
X102278571Y-68057142D01*
X95307142Y-76342857D02*
X95307142Y-75200000D01*
X95878571Y-73700000D02*
X95878571Y-74557142D01*
X95878571Y-74128571D02*
X94378571Y-74128571D01*
X94592857Y-74271428D01*
X94735714Y-74414285D01*
X94807142Y-74557142D01*
X94521428Y-73128571D02*
X94450000Y-73057142D01*
X94378571Y-72914285D01*
X94378571Y-72557142D01*
X94450000Y-72414285D01*
X94521428Y-72342857D01*
X94664285Y-72271428D01*
X94807142Y-72271428D01*
X95021428Y-72342857D01*
X95878571Y-73200000D01*
X95878571Y-72271428D01*
X94378571Y-71842857D02*
X95878571Y-71342857D01*
X94378571Y-70842857D01*
X95207142Y-68242857D02*
X95207142Y-67100000D01*
X95778571Y-67671428D02*
X94635714Y-67671428D01*
X95778571Y-65600000D02*
X95778571Y-66457142D01*
X95778571Y-66028571D02*
X94278571Y-66028571D01*
X94492857Y-66171428D01*
X94635714Y-66314285D01*
X94707142Y-66457142D01*
X94421428Y-65028571D02*
X94350000Y-64957142D01*
X94278571Y-64814285D01*
X94278571Y-64457142D01*
X94350000Y-64314285D01*
X94421428Y-64242857D01*
X94564285Y-64171428D01*
X94707142Y-64171428D01*
X94921428Y-64242857D01*
X95778571Y-65100000D01*
X95778571Y-64171428D01*
X94278571Y-63742857D02*
X95778571Y-63242857D01*
X94278571Y-62742857D01*
X139307142Y-65609285D02*
X139307142Y-64466428D01*
X138378571Y-63037857D02*
X138378571Y-63752142D01*
X139092857Y-63823571D01*
X139021428Y-63752142D01*
X138950000Y-63609285D01*
X138950000Y-63252142D01*
X139021428Y-63109285D01*
X139092857Y-63037857D01*
X139235714Y-62966428D01*
X139592857Y-62966428D01*
X139735714Y-63037857D01*
X139807142Y-63109285D01*
X139878571Y-63252142D01*
X139878571Y-63609285D01*
X139807142Y-63752142D01*
X139735714Y-63823571D01*
X138378571Y-62537857D02*
X139878571Y-62037857D01*
X138378571Y-61537857D01*
X136907142Y-66837857D02*
X136907142Y-65695000D01*
X137478571Y-66266428D02*
X136335714Y-66266428D01*
X136121428Y-65052142D02*
X136050000Y-64980714D01*
X135978571Y-64837857D01*
X135978571Y-64480714D01*
X136050000Y-64337857D01*
X136121428Y-64266428D01*
X136264285Y-64195000D01*
X136407142Y-64195000D01*
X136621428Y-64266428D01*
X137478571Y-65123571D01*
X137478571Y-64195000D01*
X135978571Y-63766428D02*
X137478571Y-63266428D01*
X135978571Y-62766428D01*
X135978571Y-61552142D02*
X135978571Y-62266428D01*
X136692857Y-62337857D01*
X136621428Y-62266428D01*
X136550000Y-62123571D01*
X136550000Y-61766428D01*
X136621428Y-61623571D01*
X136692857Y-61552142D01*
X136835714Y-61480714D01*
X137192857Y-61480714D01*
X137335714Y-61552142D01*
X137407142Y-61623571D01*
X137478571Y-61766428D01*
X137478571Y-62123571D01*
X137407142Y-62266428D01*
X137335714Y-62337857D01*
X134107142Y-65409285D02*
X134107142Y-64266428D01*
X134678571Y-64837857D02*
X133535714Y-64837857D01*
X133178571Y-62837857D02*
X133178571Y-63552142D01*
X133892857Y-63623571D01*
X133821428Y-63552142D01*
X133750000Y-63409285D01*
X133750000Y-63052142D01*
X133821428Y-62909285D01*
X133892857Y-62837857D01*
X134035714Y-62766428D01*
X134392857Y-62766428D01*
X134535714Y-62837857D01*
X134607142Y-62909285D01*
X134678571Y-63052142D01*
X134678571Y-63409285D01*
X134607142Y-63552142D01*
X134535714Y-63623571D01*
X133178571Y-62337857D02*
X134678571Y-61837857D01*
X133178571Y-61337857D01*
X140280714Y-94207142D02*
X140495000Y-94278571D01*
X140852142Y-94278571D01*
X140995000Y-94207142D01*
X141066428Y-94135714D01*
X141137857Y-93992857D01*
X141137857Y-93850000D01*
X141066428Y-93707142D01*
X140995000Y-93635714D01*
X140852142Y-93564285D01*
X140566428Y-93492857D01*
X140423571Y-93421428D01*
X140352142Y-93350000D01*
X140280714Y-93207142D01*
X140280714Y-93064285D01*
X140352142Y-92921428D01*
X140423571Y-92850000D01*
X140566428Y-92778571D01*
X140923571Y-92778571D01*
X141137857Y-92850000D01*
X141709285Y-94207142D02*
X141923571Y-94278571D01*
X142280714Y-94278571D01*
X142423571Y-94207142D01*
X142495000Y-94135714D01*
X142566428Y-93992857D01*
X142566428Y-93850000D01*
X142495000Y-93707142D01*
X142423571Y-93635714D01*
X142280714Y-93564285D01*
X141995000Y-93492857D01*
X141852142Y-93421428D01*
X141780714Y-93350000D01*
X141709285Y-93207142D01*
X141709285Y-93064285D01*
X141780714Y-92921428D01*
X141852142Y-92850000D01*
X141995000Y-92778571D01*
X142352142Y-92778571D01*
X142566428Y-92850000D01*
X143495000Y-93564285D02*
X143495000Y-94278571D01*
X142995000Y-92778571D02*
X143495000Y-93564285D01*
X143995000Y-92778571D01*
X144495000Y-94278571D02*
X144495000Y-92778571D01*
X145352142Y-94278571D01*
X145352142Y-92778571D01*
X146923571Y-94135714D02*
X146852142Y-94207142D01*
X146637857Y-94278571D01*
X146495000Y-94278571D01*
X146280714Y-94207142D01*
X146137857Y-94064285D01*
X146066428Y-93921428D01*
X145995000Y-93635714D01*
X145995000Y-93421428D01*
X146066428Y-93135714D01*
X146137857Y-92992857D01*
X146280714Y-92850000D01*
X146495000Y-92778571D01*
X146637857Y-92778571D01*
X146852142Y-92850000D01*
X146923571Y-92921428D01*
X140337857Y-90378571D02*
X141195000Y-90378571D01*
X140766428Y-91878571D02*
X140766428Y-90378571D01*
X142552142Y-91878571D02*
X142052142Y-91164285D01*
X141695000Y-91878571D02*
X141695000Y-90378571D01*
X142266428Y-90378571D01*
X142409285Y-90450000D01*
X142480714Y-90521428D01*
X142552142Y-90664285D01*
X142552142Y-90878571D01*
X142480714Y-91021428D01*
X142409285Y-91092857D01*
X142266428Y-91164285D01*
X141695000Y-91164285D01*
X143195000Y-91878571D02*
X143195000Y-90378571D01*
X144766428Y-91878571D02*
X144266428Y-91164285D01*
X143909285Y-91878571D02*
X143909285Y-90378571D01*
X144480714Y-90378571D01*
X144623571Y-90450000D01*
X144695000Y-90521428D01*
X144766428Y-90664285D01*
X144766428Y-90878571D01*
X144695000Y-91021428D01*
X144623571Y-91092857D01*
X144480714Y-91164285D01*
X143909285Y-91164285D01*
X145409285Y-91092857D02*
X145909285Y-91092857D01*
X146123571Y-91878571D02*
X145409285Y-91878571D01*
X145409285Y-90378571D01*
X146123571Y-90378571D01*
X146552142Y-90378571D02*
X147052142Y-91878571D01*
X147552142Y-90378571D01*
X140352142Y-89278571D02*
X140352142Y-87778571D01*
X140352142Y-88492857D02*
X141209285Y-88492857D01*
X141209285Y-89278571D02*
X141209285Y-87778571D01*
X141852142Y-89207142D02*
X142066428Y-89278571D01*
X142423571Y-89278571D01*
X142566428Y-89207142D01*
X142637857Y-89135714D01*
X142709285Y-88992857D01*
X142709285Y-88850000D01*
X142637857Y-88707142D01*
X142566428Y-88635714D01*
X142423571Y-88564285D01*
X142137857Y-88492857D01*
X141995000Y-88421428D01*
X141923571Y-88350000D01*
X141852142Y-88207142D01*
X141852142Y-88064285D01*
X141923571Y-87921428D01*
X141995000Y-87850000D01*
X142137857Y-87778571D01*
X142495000Y-87778571D01*
X142709285Y-87850000D01*
X143637857Y-88564285D02*
X143637857Y-89278571D01*
X143137857Y-87778571D02*
X143637857Y-88564285D01*
X144137857Y-87778571D01*
X144637857Y-89278571D02*
X144637857Y-87778571D01*
X145495000Y-89278571D01*
X145495000Y-87778571D01*
X147066428Y-89135714D02*
X146995000Y-89207142D01*
X146780714Y-89278571D01*
X146637857Y-89278571D01*
X146423571Y-89207142D01*
X146280714Y-89064285D01*
X146209285Y-88921428D01*
X146137857Y-88635714D01*
X146137857Y-88421428D01*
X146209285Y-88135714D01*
X146280714Y-87992857D01*
X146423571Y-87850000D01*
X146637857Y-87778571D01*
X146780714Y-87778571D01*
X146995000Y-87850000D01*
X147066428Y-87921428D01*
X140280714Y-86250000D02*
X140995000Y-86250000D01*
X140137857Y-86678571D02*
X140637857Y-85178571D01*
X141137857Y-86678571D01*
X141637857Y-85178571D02*
X141637857Y-86392857D01*
X141709285Y-86535714D01*
X141780714Y-86607142D01*
X141923571Y-86678571D01*
X142209285Y-86678571D01*
X142352142Y-86607142D01*
X142423571Y-86535714D01*
X142495000Y-86392857D01*
X142495000Y-85178571D01*
X143066428Y-85178571D02*
X144066428Y-86678571D01*
X144066428Y-85178571D02*
X143066428Y-86678571D01*
X144566428Y-85321428D02*
X144637857Y-85250000D01*
X144780714Y-85178571D01*
X145137857Y-85178571D01*
X145280714Y-85250000D01*
X145352142Y-85321428D01*
X145423571Y-85464285D01*
X145423571Y-85607142D01*
X145352142Y-85821428D01*
X144495000Y-86678571D01*
X145423571Y-86678571D01*
X140280714Y-83650000D02*
X140995000Y-83650000D01*
X140137857Y-84078571D02*
X140637857Y-82578571D01*
X141137857Y-84078571D01*
X141637857Y-82578571D02*
X141637857Y-83792857D01*
X141709285Y-83935714D01*
X141780714Y-84007142D01*
X141923571Y-84078571D01*
X142209285Y-84078571D01*
X142352142Y-84007142D01*
X142423571Y-83935714D01*
X142495000Y-83792857D01*
X142495000Y-82578571D01*
X143066428Y-82578571D02*
X144066428Y-84078571D01*
X144066428Y-82578571D02*
X143066428Y-84078571D01*
X145423571Y-84078571D02*
X144566428Y-84078571D01*
X144995000Y-84078571D02*
X144995000Y-82578571D01*
X144852142Y-82792857D01*
X144709285Y-82935714D01*
X144566428Y-83007142D01*
X130078571Y-86247857D02*
X128578571Y-86247857D01*
X129650000Y-85747857D01*
X128578571Y-85247857D01*
X130078571Y-85247857D01*
X130078571Y-84533571D02*
X128578571Y-84533571D01*
X128578571Y-83962142D02*
X130078571Y-82962142D01*
X128578571Y-82962142D02*
X130078571Y-83962142D01*
X127407142Y-86319285D02*
X127478571Y-86105000D01*
X127478571Y-85747857D01*
X127407142Y-85605000D01*
X127335714Y-85533571D01*
X127192857Y-85462142D01*
X127050000Y-85462142D01*
X126907142Y-85533571D01*
X126835714Y-85605000D01*
X126764285Y-85747857D01*
X126692857Y-86033571D01*
X126621428Y-86176428D01*
X126550000Y-86247857D01*
X126407142Y-86319285D01*
X126264285Y-86319285D01*
X126121428Y-86247857D01*
X126050000Y-86176428D01*
X125978571Y-86033571D01*
X125978571Y-85676428D01*
X126050000Y-85462142D01*
X127478571Y-84819285D02*
X125978571Y-84819285D01*
X127478571Y-84105000D02*
X125978571Y-84105000D01*
X127478571Y-83247857D01*
X125978571Y-83247857D01*
X124807142Y-86319285D02*
X124878571Y-86105000D01*
X124878571Y-85747857D01*
X124807142Y-85605000D01*
X124735714Y-85533571D01*
X124592857Y-85462142D01*
X124450000Y-85462142D01*
X124307142Y-85533571D01*
X124235714Y-85605000D01*
X124164285Y-85747857D01*
X124092857Y-86033571D01*
X124021428Y-86176428D01*
X123950000Y-86247857D01*
X123807142Y-86319285D01*
X123664285Y-86319285D01*
X123521428Y-86247857D01*
X123450000Y-86176428D01*
X123378571Y-86033571D01*
X123378571Y-85676428D01*
X123450000Y-85462142D01*
X125021428Y-83819285D02*
X124950000Y-83962142D01*
X124807142Y-84105000D01*
X124592857Y-84319285D01*
X124521428Y-84462142D01*
X124521428Y-84605000D01*
X124878571Y-84533571D02*
X124807142Y-84676428D01*
X124664285Y-84819285D01*
X124378571Y-84890714D01*
X123878571Y-84890714D01*
X123592857Y-84819285D01*
X123450000Y-84676428D01*
X123378571Y-84533571D01*
X123378571Y-84247857D01*
X123450000Y-84105000D01*
X123592857Y-83962142D01*
X123878571Y-83890714D01*
X124378571Y-83890714D01*
X124664285Y-83962142D01*
X124807142Y-84105000D01*
X124878571Y-84247857D01*
X124878571Y-84533571D01*
X123378571Y-83247857D02*
X124592857Y-83247857D01*
X124735714Y-83176428D01*
X124807142Y-83105000D01*
X124878571Y-82962142D01*
X124878571Y-82676428D01*
X124807142Y-82533571D01*
X124735714Y-82462142D01*
X124592857Y-82390714D01*
X123378571Y-82390714D01*
X124450000Y-81747857D02*
X124450000Y-81033571D01*
X124878571Y-81890714D02*
X123378571Y-81390714D01*
X124878571Y-80890714D01*
X124878571Y-79533571D02*
X124164285Y-80033571D01*
X124878571Y-80390714D02*
X123378571Y-80390714D01*
X123378571Y-79819285D01*
X123450000Y-79676428D01*
X123521428Y-79605000D01*
X123664285Y-79533571D01*
X123878571Y-79533571D01*
X124021428Y-79605000D01*
X124092857Y-79676428D01*
X124164285Y-79819285D01*
X124164285Y-80390714D01*
X124092857Y-78890714D02*
X124092857Y-78390714D01*
X124878571Y-78176428D02*
X124878571Y-78890714D01*
X123378571Y-78890714D01*
X123378571Y-78176428D01*
X122407142Y-86319285D02*
X122478571Y-86105000D01*
X122478571Y-85747857D01*
X122407142Y-85605000D01*
X122335714Y-85533571D01*
X122192857Y-85462142D01*
X122050000Y-85462142D01*
X121907142Y-85533571D01*
X121835714Y-85605000D01*
X121764285Y-85747857D01*
X121692857Y-86033571D01*
X121621428Y-86176428D01*
X121550000Y-86247857D01*
X121407142Y-86319285D01*
X121264285Y-86319285D01*
X121121428Y-86247857D01*
X121050000Y-86176428D01*
X120978571Y-86033571D01*
X120978571Y-85676428D01*
X121050000Y-85462142D01*
X122050000Y-84890714D02*
X122050000Y-84176428D01*
X122478571Y-85033571D02*
X120978571Y-84533571D01*
X122478571Y-84033571D01*
X120978571Y-83676428D02*
X122478571Y-83319285D01*
X121407142Y-83033571D01*
X122478571Y-82747857D01*
X120978571Y-82390714D01*
X119878571Y-86247857D02*
X118378571Y-86247857D01*
X118378571Y-85676428D01*
X118450000Y-85533571D01*
X118521428Y-85462142D01*
X118664285Y-85390714D01*
X118878571Y-85390714D01*
X119021428Y-85462142D01*
X119092857Y-85533571D01*
X119164285Y-85676428D01*
X119164285Y-86247857D01*
X118378571Y-84747857D02*
X119592857Y-84747857D01*
X119735714Y-84676428D01*
X119807142Y-84605000D01*
X119878571Y-84462142D01*
X119878571Y-84176428D01*
X119807142Y-84033571D01*
X119735714Y-83962142D01*
X119592857Y-83890714D01*
X118378571Y-83890714D01*
X119878571Y-82462142D02*
X119878571Y-83176428D01*
X118378571Y-83176428D01*
X119807142Y-82033571D02*
X119878571Y-81819285D01*
X119878571Y-81462142D01*
X119807142Y-81319285D01*
X119735714Y-81247857D01*
X119592857Y-81176428D01*
X119450000Y-81176428D01*
X119307142Y-81247857D01*
X119235714Y-81319285D01*
X119164285Y-81462142D01*
X119092857Y-81747857D01*
X119021428Y-81890714D01*
X118950000Y-81962142D01*
X118807142Y-82033571D01*
X118664285Y-82033571D01*
X118521428Y-81962142D01*
X118450000Y-81890714D01*
X118378571Y-81747857D01*
X118378571Y-81390714D01*
X118450000Y-81176428D01*
X119092857Y-80533571D02*
X119092857Y-80033571D01*
X119878571Y-79819285D02*
X119878571Y-80533571D01*
X118378571Y-80533571D01*
X118378571Y-79819285D01*
X115778571Y-86609285D02*
X115778571Y-85752142D01*
X117278571Y-86180714D02*
X115778571Y-86180714D01*
X117278571Y-84395000D02*
X116564285Y-84895000D01*
X117278571Y-85252142D02*
X115778571Y-85252142D01*
X115778571Y-84680714D01*
X115850000Y-84537857D01*
X115921428Y-84466428D01*
X116064285Y-84395000D01*
X116278571Y-84395000D01*
X116421428Y-84466428D01*
X116492857Y-84537857D01*
X116564285Y-84680714D01*
X116564285Y-85252142D01*
X117278571Y-83752142D02*
X115778571Y-83752142D01*
X144207142Y-108385714D02*
X144278571Y-108171428D01*
X144278571Y-107814285D01*
X144207142Y-107671428D01*
X144135714Y-107600000D01*
X143992857Y-107528571D01*
X143850000Y-107528571D01*
X143707142Y-107600000D01*
X143635714Y-107671428D01*
X143564285Y-107814285D01*
X143492857Y-108100000D01*
X143421428Y-108242857D01*
X143350000Y-108314285D01*
X143207142Y-108385714D01*
X143064285Y-108385714D01*
X142921428Y-108314285D01*
X142850000Y-108242857D01*
X142778571Y-108100000D01*
X142778571Y-107742857D01*
X142850000Y-107528571D01*
X144207142Y-106242857D02*
X144278571Y-106385714D01*
X144278571Y-106671428D01*
X144207142Y-106814285D01*
X144135714Y-106885714D01*
X143992857Y-106957142D01*
X143564285Y-106957142D01*
X143421428Y-106885714D01*
X143350000Y-106814285D01*
X143278571Y-106671428D01*
X143278571Y-106385714D01*
X143350000Y-106242857D01*
X144278571Y-104957142D02*
X143492857Y-104957142D01*
X143350000Y-105028571D01*
X143278571Y-105171428D01*
X143278571Y-105457142D01*
X143350000Y-105600000D01*
X144207142Y-104957142D02*
X144278571Y-105100000D01*
X144278571Y-105457142D01*
X144207142Y-105600000D01*
X144064285Y-105671428D01*
X143921428Y-105671428D01*
X143778571Y-105600000D01*
X143707142Y-105457142D01*
X143707142Y-105100000D01*
X143635714Y-104957142D01*
X144278571Y-104028571D02*
X144207142Y-104171428D01*
X144064285Y-104242857D01*
X142778571Y-104242857D01*
X144207142Y-102885714D02*
X144278571Y-103028571D01*
X144278571Y-103314285D01*
X144207142Y-103457142D01*
X144064285Y-103528571D01*
X143492857Y-103528571D01*
X143350000Y-103457142D01*
X143278571Y-103314285D01*
X143278571Y-103028571D01*
X143350000Y-102885714D01*
X143492857Y-102814285D01*
X143635714Y-102814285D01*
X143778571Y-103528571D01*
X95892857Y-118678571D02*
X95892857Y-117178571D01*
X96464285Y-117178571D01*
X96607142Y-117250000D01*
X96678571Y-117321428D01*
X96750000Y-117464285D01*
X96750000Y-117678571D01*
X96678571Y-117821428D01*
X96607142Y-117892857D01*
X96464285Y-117964285D01*
X95892857Y-117964285D01*
X97250000Y-117178571D02*
X97607142Y-118678571D01*
X97892857Y-117607142D01*
X98178571Y-118678571D01*
X98535714Y-117178571D01*
X99107142Y-118678571D02*
X99107142Y-117178571D01*
X99607142Y-118250000D01*
X100107142Y-117178571D01*
X100107142Y-118678571D01*
X94921428Y-114578571D02*
X95778571Y-114578571D01*
X95350000Y-116078571D02*
X95350000Y-114578571D01*
X96278571Y-114578571D02*
X96278571Y-115792857D01*
X96350000Y-115935714D01*
X96421428Y-116007142D01*
X96564285Y-116078571D01*
X96850000Y-116078571D01*
X96992857Y-116007142D01*
X97064285Y-115935714D01*
X97135714Y-115792857D01*
X97135714Y-114578571D01*
X97850000Y-116078571D02*
X97850000Y-114578571D01*
X98707142Y-116078571D01*
X98707142Y-114578571D01*
X99421428Y-115292857D02*
X99921428Y-115292857D01*
X100135714Y-116078571D02*
X99421428Y-116078571D01*
X99421428Y-114578571D01*
X100135714Y-114578571D01*
X95021428Y-113678571D02*
X94307142Y-113678571D01*
X94307142Y-112178571D01*
X95521428Y-113678571D02*
X95521428Y-112178571D01*
X96235714Y-113678571D02*
X96235714Y-112178571D01*
X97092857Y-113678571D01*
X97092857Y-112178571D01*
X98307142Y-112892857D02*
X97807142Y-112892857D01*
X97807142Y-113678571D02*
X97807142Y-112178571D01*
X98521428Y-112178571D01*
X99092857Y-113678571D02*
X99092857Y-112178571D01*
X99592857Y-113250000D01*
X100092857Y-112178571D01*
X100092857Y-113678571D01*
X96164285Y-109578571D02*
X97164285Y-111078571D01*
X97164285Y-109578571D02*
X96164285Y-111078571D01*
X97735714Y-111078571D02*
X97735714Y-109578571D01*
X98307142Y-109578571D01*
X98450000Y-109650000D01*
X98521428Y-109721428D01*
X98592857Y-109864285D01*
X98592857Y-110078571D01*
X98521428Y-110221428D01*
X98450000Y-110292857D01*
X98307142Y-110364285D01*
X97735714Y-110364285D01*
X99521428Y-109578571D02*
X99807142Y-109578571D01*
X99950000Y-109650000D01*
X100092857Y-109792857D01*
X100164285Y-110078571D01*
X100164285Y-110578571D01*
X100092857Y-110864285D01*
X99950000Y-111007142D01*
X99807142Y-111078571D01*
X99521428Y-111078571D01*
X99378571Y-111007142D01*
X99235714Y-110864285D01*
X99164285Y-110578571D01*
X99164285Y-110078571D01*
X99235714Y-109792857D01*
X99378571Y-109650000D01*
X99521428Y-109578571D01*
X96878571Y-107692857D02*
X96378571Y-107692857D01*
X96378571Y-108478571D02*
X96378571Y-106978571D01*
X97092857Y-106978571D01*
X98521428Y-108478571D02*
X98021428Y-107764285D01*
X97664285Y-108478571D02*
X97664285Y-106978571D01*
X98235714Y-106978571D01*
X98378571Y-107050000D01*
X98450000Y-107121428D01*
X98521428Y-107264285D01*
X98521428Y-107478571D01*
X98450000Y-107621428D01*
X98378571Y-107692857D01*
X98235714Y-107764285D01*
X97664285Y-107764285D01*
X100164285Y-108621428D02*
X100021428Y-108550000D01*
X99878571Y-108407142D01*
X99664285Y-108192857D01*
X99521428Y-108121428D01*
X99378571Y-108121428D01*
X99450000Y-108478571D02*
X99307142Y-108407142D01*
X99164285Y-108264285D01*
X99092857Y-107978571D01*
X99092857Y-107478571D01*
X99164285Y-107192857D01*
X99307142Y-107050000D01*
X99450000Y-106978571D01*
X99735714Y-106978571D01*
X99878571Y-107050000D01*
X100021428Y-107192857D01*
X100092857Y-107478571D01*
X100092857Y-107978571D01*
X100021428Y-108264285D01*
X99878571Y-108407142D01*
X99735714Y-108478571D01*
X99450000Y-108478571D01*
X104005000Y-121303571D02*
X104862142Y-121303571D01*
X104433571Y-122803571D02*
X104433571Y-121303571D01*
X106005000Y-121803571D02*
X106005000Y-122803571D01*
X105362142Y-121803571D02*
X105362142Y-122589285D01*
X105433571Y-122732142D01*
X105576428Y-122803571D01*
X105790714Y-122803571D01*
X105933571Y-122732142D01*
X106005000Y-122660714D01*
X106719285Y-121803571D02*
X106719285Y-122803571D01*
X106719285Y-121946428D02*
X106790714Y-121875000D01*
X106933571Y-121803571D01*
X107147857Y-121803571D01*
X107290714Y-121875000D01*
X107362142Y-122017857D01*
X107362142Y-122803571D01*
X108647857Y-122732142D02*
X108505000Y-122803571D01*
X108219285Y-122803571D01*
X108076428Y-122732142D01*
X108005000Y-122589285D01*
X108005000Y-122017857D01*
X108076428Y-121875000D01*
X108219285Y-121803571D01*
X108505000Y-121803571D01*
X108647857Y-121875000D01*
X108719285Y-122017857D01*
X108719285Y-122160714D01*
X108005000Y-122303571D01*
X105076428Y-124567857D02*
X105290714Y-124639285D01*
X105362142Y-124710714D01*
X105433571Y-124853571D01*
X105433571Y-125067857D01*
X105362142Y-125210714D01*
X105290714Y-125282142D01*
X105147857Y-125353571D01*
X104576428Y-125353571D01*
X104576428Y-123853571D01*
X105076428Y-123853571D01*
X105219285Y-123925000D01*
X105290714Y-123996428D01*
X105362142Y-124139285D01*
X105362142Y-124282142D01*
X105290714Y-124425000D01*
X105219285Y-124496428D01*
X105076428Y-124567857D01*
X104576428Y-124567857D01*
X106076428Y-125353571D02*
X106076428Y-124353571D01*
X106076428Y-123853571D02*
X106005000Y-123925000D01*
X106076428Y-123996428D01*
X106147857Y-123925000D01*
X106076428Y-123853571D01*
X106076428Y-123996428D01*
X107433571Y-125353571D02*
X107433571Y-124567857D01*
X107362142Y-124425000D01*
X107219285Y-124353571D01*
X106933571Y-124353571D01*
X106790714Y-124425000D01*
X107433571Y-125282142D02*
X107290714Y-125353571D01*
X106933571Y-125353571D01*
X106790714Y-125282142D01*
X106719285Y-125139285D01*
X106719285Y-124996428D01*
X106790714Y-124853571D01*
X106933571Y-124782142D01*
X107290714Y-124782142D01*
X107433571Y-124710714D01*
X108076428Y-125282142D02*
X108219285Y-125353571D01*
X108505000Y-125353571D01*
X108647857Y-125282142D01*
X108719285Y-125139285D01*
X108719285Y-125067857D01*
X108647857Y-124925000D01*
X108505000Y-124853571D01*
X108290714Y-124853571D01*
X108147857Y-124782142D01*
X108076428Y-124639285D01*
X108076428Y-124567857D01*
X108147857Y-124425000D01*
X108290714Y-124353571D01*
X108505000Y-124353571D01*
X108647857Y-124425000D01*
X99478571Y-102814285D02*
X97978571Y-102814285D01*
X98692857Y-102814285D02*
X98692857Y-101957142D01*
X99478571Y-101957142D02*
X97978571Y-101957142D01*
X98692857Y-100742857D02*
X98692857Y-101242857D01*
X99478571Y-101242857D02*
X97978571Y-101242857D01*
X97978571Y-100528571D01*
X97978571Y-99028571D02*
X97978571Y-98171428D01*
X99478571Y-98600000D02*
X97978571Y-98600000D01*
X98478571Y-97028571D02*
X99478571Y-97028571D01*
X98478571Y-97671428D02*
X99264285Y-97671428D01*
X99407142Y-97600000D01*
X99478571Y-97457142D01*
X99478571Y-97242857D01*
X99407142Y-97100000D01*
X99335714Y-97028571D01*
X98478571Y-96314285D02*
X99478571Y-96314285D01*
X98621428Y-96314285D02*
X98550000Y-96242857D01*
X98478571Y-96100000D01*
X98478571Y-95885714D01*
X98550000Y-95742857D01*
X98692857Y-95671428D01*
X99478571Y-95671428D01*
X99407142Y-94385714D02*
X99478571Y-94528571D01*
X99478571Y-94814285D01*
X99407142Y-94957142D01*
X99264285Y-95028571D01*
X98692857Y-95028571D01*
X98550000Y-94957142D01*
X98478571Y-94814285D01*
X98478571Y-94528571D01*
X98550000Y-94385714D01*
X98692857Y-94314285D01*
X98835714Y-94314285D01*
X98978571Y-95028571D01*
D11*
%TO.C,C2*%
X104450000Y-71900000D02*
X104450000Y-70900000D01*
X102750000Y-70900000D02*
X102750000Y-71900000D01*
%TO.C,R19*%
X112000000Y-106320000D02*
X113200000Y-106320000D01*
X113200000Y-108080000D02*
X112000000Y-108080000D01*
%TO.C,C1*%
X106650000Y-67700000D02*
X106650000Y-66700000D01*
X104950000Y-66700000D02*
X104950000Y-67700000D01*
%TO.C,C3*%
X113100000Y-98050000D02*
X114100000Y-98050000D01*
X114100000Y-96350000D02*
X113100000Y-96350000D01*
%TO.C,C4*%
X114450000Y-65300000D02*
X114450000Y-64300000D01*
X112750000Y-64300000D02*
X112750000Y-65300000D01*
%TO.C,C5*%
X105150000Y-72300000D02*
X105150000Y-73300000D01*
X106850000Y-73300000D02*
X106850000Y-72300000D01*
%TO.C,C6*%
X122300000Y-100050000D02*
X123300000Y-100050000D01*
X123300000Y-98350000D02*
X122300000Y-98350000D01*
%TO.C,C7*%
X116100000Y-108950000D02*
X115100000Y-108950000D01*
X115100000Y-110650000D02*
X116100000Y-110650000D01*
%TO.C,C8*%
X125900000Y-112650000D02*
X126900000Y-112650000D01*
X126900000Y-110950000D02*
X125900000Y-110950000D01*
%TO.C,C9*%
X127500000Y-98350000D02*
X126500000Y-98350000D01*
X126500000Y-100050000D02*
X127500000Y-100050000D01*
%TO.C,C10*%
X130100000Y-104350000D02*
X129100000Y-104350000D01*
X129100000Y-106050000D02*
X130100000Y-106050000D01*
%TO.C,J2*%
X101070000Y-119290000D02*
X103730000Y-119290000D01*
X101070000Y-109070000D02*
X101070000Y-119290000D01*
X103730000Y-109070000D02*
X103730000Y-119290000D01*
X101070000Y-109070000D02*
X103730000Y-109070000D01*
X101070000Y-107800000D02*
X101070000Y-106470000D01*
X101070000Y-106470000D02*
X102400000Y-106470000D01*
%TO.C,J3*%
X134890000Y-126930000D02*
X134890000Y-124270000D01*
X124670000Y-126930000D02*
X134890000Y-126930000D01*
X124670000Y-124270000D02*
X134890000Y-124270000D01*
X124670000Y-126930000D02*
X124670000Y-124270000D01*
X123400000Y-126930000D02*
X122070000Y-126930000D01*
X122070000Y-126930000D02*
X122070000Y-125600000D01*
%TO.C,J4*%
X136670000Y-82070000D02*
X138000000Y-82070000D01*
X136670000Y-83400000D02*
X136670000Y-82070000D01*
X136670000Y-84670000D02*
X139330000Y-84670000D01*
X139330000Y-84670000D02*
X139330000Y-94890000D01*
X136670000Y-84670000D02*
X136670000Y-94890000D01*
X136670000Y-94890000D02*
X139330000Y-94890000D01*
%TO.C,J5*%
X115270000Y-90130000D02*
X115270000Y-88800000D01*
X116600000Y-90130000D02*
X115270000Y-90130000D01*
X117870000Y-90130000D02*
X117870000Y-87470000D01*
X117870000Y-87470000D02*
X130630000Y-87470000D01*
X117870000Y-90130000D02*
X130630000Y-90130000D01*
X130630000Y-90130000D02*
X130630000Y-87470000D01*
%TO.C,R1*%
X117120000Y-67800000D02*
X117120000Y-66600000D01*
X118880000Y-66600000D02*
X118880000Y-67800000D01*
%TO.C,R2*%
X117000000Y-98320000D02*
X118200000Y-98320000D01*
X118200000Y-100080000D02*
X117000000Y-100080000D01*
%TO.C,R3*%
X113000000Y-100320000D02*
X114200000Y-100320000D01*
X114200000Y-102080000D02*
X113000000Y-102080000D01*
%TO.C,R4*%
X109000000Y-104880000D02*
X107800000Y-104880000D01*
X107800000Y-103120000D02*
X109000000Y-103120000D01*
%TO.C,R5*%
X107800000Y-105120000D02*
X109000000Y-105120000D01*
X109000000Y-106880000D02*
X107800000Y-106880000D01*
%TO.C,R6*%
X107800000Y-107120000D02*
X109000000Y-107120000D01*
X109000000Y-108880000D02*
X107800000Y-108880000D01*
%TO.C,R7*%
X107800000Y-101320000D02*
X109000000Y-101320000D01*
X109000000Y-103080000D02*
X107800000Y-103080000D01*
%TO.C,R8*%
X113000000Y-98320000D02*
X114200000Y-98320000D01*
X114200000Y-100080000D02*
X113000000Y-100080000D01*
%TO.C,R9*%
X117720000Y-115600000D02*
X117720000Y-114400000D01*
X119480000Y-114400000D02*
X119480000Y-115600000D01*
%TO.C,R10*%
X119920000Y-115600000D02*
X119920000Y-114400000D01*
X121680000Y-114400000D02*
X121680000Y-115600000D01*
%TO.C,R11*%
X123880000Y-114400000D02*
X123880000Y-115600000D01*
X122120000Y-115600000D02*
X122120000Y-114400000D01*
%TO.C,R12*%
X124320000Y-115600000D02*
X124320000Y-114400000D01*
X126080000Y-114400000D02*
X126080000Y-115600000D01*
%TO.C,R13*%
X128280000Y-114400000D02*
X128280000Y-115600000D01*
X126520000Y-115600000D02*
X126520000Y-114400000D01*
%TO.C,R14*%
X125600000Y-102680000D02*
X124400000Y-102680000D01*
X124400000Y-100920000D02*
X125600000Y-100920000D01*
%TO.C,R15*%
X130600000Y-94320000D02*
X131800000Y-94320000D01*
X131800000Y-96080000D02*
X130600000Y-96080000D01*
%TO.C,R16*%
X132800000Y-108920000D02*
X134000000Y-108920000D01*
X134000000Y-110680000D02*
X132800000Y-110680000D01*
%TO.C,R17*%
X125280000Y-66400000D02*
X125280000Y-67600000D01*
X123520000Y-67600000D02*
X123520000Y-66400000D01*
%TO.C,R18*%
X131680000Y-66400000D02*
X131680000Y-67600000D01*
X129920000Y-67600000D02*
X129920000Y-66400000D01*
%TO.C,R20*%
X110120000Y-110400000D02*
X110120000Y-109200000D01*
X111880000Y-109200000D02*
X111880000Y-110400000D01*
D12*
%TO.C,U1*%
X119550000Y-107250000D02*
X119550000Y-105000000D01*
X122050000Y-107250000D02*
X119550000Y-107250000D01*
X122050000Y-104750000D02*
X122050000Y-107250000D01*
X119800000Y-104750000D02*
X122050000Y-104750000D01*
X119550000Y-105000000D02*
X119800000Y-104750000D01*
X122500000Y-103850000D02*
X122950000Y-103850000D01*
X122950000Y-103850000D02*
X122950000Y-104300000D01*
X118650000Y-103850000D02*
X119100000Y-103850000D01*
X118650000Y-104300000D02*
X118650000Y-103850000D01*
X118650000Y-108150000D02*
X118650000Y-107700000D01*
X119100000Y-108150000D02*
X118650000Y-108150000D01*
X122950000Y-108150000D02*
X122500000Y-108150000D01*
X122950000Y-107700000D02*
X122950000Y-108150000D01*
D13*
G36*
X118350000Y-104250000D02*
G01*
X117950000Y-104250000D01*
X117950000Y-103850000D01*
X118350000Y-103850000D01*
X118350000Y-104250000D01*
G37*
X118350000Y-104250000D02*
X117950000Y-104250000D01*
X117950000Y-103850000D01*
X118350000Y-103850000D01*
X118350000Y-104250000D01*
D11*
%TO.C,U2*%
X119560000Y-72980000D02*
X119560000Y-72050000D01*
X119560000Y-69820000D02*
X119560000Y-70750000D01*
X119560000Y-69820000D02*
X117400000Y-69820000D01*
X119560000Y-72980000D02*
X118100000Y-72980000D01*
%TO.C,U3*%
X108600000Y-69380000D02*
X107400000Y-69380000D01*
X107400000Y-69380000D02*
X107400000Y-66680000D01*
X112200000Y-65380000D02*
X112200000Y-69380000D01*
X112200000Y-69380000D02*
X111000000Y-69380000D01*
%TO.C,U4*%
X112200000Y-76846500D02*
X111000000Y-76846500D01*
X112200000Y-72846500D02*
X112200000Y-76846500D01*
X107400000Y-76846500D02*
X107400000Y-74146500D01*
X108600000Y-76846500D02*
X107400000Y-76846500D01*
%TO.C,U5*%
X125960000Y-72980000D02*
X124500000Y-72980000D01*
X125960000Y-69820000D02*
X123800000Y-69820000D01*
X125960000Y-69820000D02*
X125960000Y-70750000D01*
X125960000Y-72980000D02*
X125960000Y-72050000D01*
%TO.C,U6*%
X131560000Y-72980000D02*
X130100000Y-72980000D01*
X131560000Y-69820000D02*
X129400000Y-69820000D01*
X131560000Y-69820000D02*
X131560000Y-70750000D01*
X131560000Y-72980000D02*
X131560000Y-72050000D01*
%TO.C,J1*%
X97270000Y-73010000D02*
X99930000Y-73010000D01*
X97270000Y-67870000D02*
X97270000Y-73010000D01*
X99930000Y-67870000D02*
X99930000Y-73010000D01*
X97270000Y-67870000D02*
X99930000Y-67870000D01*
X97270000Y-66600000D02*
X97270000Y-65270000D01*
X97270000Y-65270000D02*
X98600000Y-65270000D01*
%TO.C,J6*%
X132670000Y-60530000D02*
X132670000Y-59200000D01*
X134000000Y-60530000D02*
X132670000Y-60530000D01*
X135270000Y-60530000D02*
X135270000Y-57870000D01*
X135270000Y-57870000D02*
X140410000Y-57870000D01*
X135270000Y-60530000D02*
X140410000Y-60530000D01*
X140410000Y-60530000D02*
X140410000Y-57870000D01*
%TO.C,RV1*%
X103475000Y-94309000D02*
X105085000Y-95921000D01*
X103616000Y-94169000D02*
X105226000Y-95780000D01*
X100730000Y-93715000D02*
X105681000Y-93715000D01*
X100730000Y-103365000D02*
X105681000Y-103365000D01*
X105681000Y-103365000D02*
X105681000Y-93715000D01*
X100730000Y-103365000D02*
X100730000Y-93715000D01*
X105504052Y-95024879D02*
G75*
G02*
X104110000Y-96174000I-1154052J-20121D01*
G01*
X103195704Y-95085309D02*
G75*
G02*
X105505000Y-95045000I1154296J40309D01*
G01*
%TO.C,RV2*%
X136930000Y-110565000D02*
X136930000Y-100915000D01*
X141881000Y-110565000D02*
X141881000Y-100915000D01*
X136930000Y-110565000D02*
X141881000Y-110565000D01*
X136930000Y-100915000D02*
X141881000Y-100915000D01*
X139816000Y-101369000D02*
X141426000Y-102980000D01*
X139675000Y-101509000D02*
X141285000Y-103121000D01*
X139395704Y-102285309D02*
G75*
G02*
X141705000Y-102245000I1154296J40309D01*
G01*
X141704052Y-102224879D02*
G75*
G02*
X140310000Y-103374000I-1154052J-20121D01*
G01*
%TO.C,RV3*%
X110169000Y-123325000D02*
X111781000Y-121715000D01*
X110029000Y-123184000D02*
X111640000Y-121574000D01*
X109575000Y-126070000D02*
X109575000Y-121119000D01*
X119225000Y-126070000D02*
X119225000Y-121119000D01*
X119225000Y-121119000D02*
X109575000Y-121119000D01*
X119225000Y-126070000D02*
X109575000Y-126070000D01*
X110884879Y-121295948D02*
G75*
G02*
X112034000Y-122690000I20121J-1154052D01*
G01*
X110945309Y-123604296D02*
G75*
G02*
X110905000Y-121295000I-40309J1154296D01*
G01*
%TO.C,C11*%
X112300000Y-94690000D02*
X111130000Y-94690000D01*
X107730000Y-94690000D02*
X108900000Y-94690000D01*
X108490000Y-90110000D02*
X108900000Y-90110000D01*
X111540000Y-90110000D02*
X111130000Y-90110000D01*
X112300000Y-90880000D02*
X112300000Y-94690000D01*
X112300000Y-90880000D02*
X111540000Y-90110000D01*
X107730000Y-90880000D02*
X107730000Y-94690000D01*
X107730000Y-90880000D02*
X108490000Y-90110000D01*
%TO.C,J7*%
X103390000Y-82470000D02*
X103390000Y-85130000D01*
X108530000Y-82470000D02*
X103390000Y-82470000D01*
X108530000Y-85130000D02*
X103390000Y-85130000D01*
X108530000Y-82470000D02*
X108530000Y-85130000D01*
X109800000Y-82470000D02*
X111130000Y-82470000D01*
X111130000Y-82470000D02*
X111130000Y-83800000D01*
%TO.C,C2*%
D12*
X101433333Y-73157142D02*
X101385714Y-73204761D01*
X101242857Y-73252380D01*
X101147619Y-73252380D01*
X101004761Y-73204761D01*
X100909523Y-73109523D01*
X100861904Y-73014285D01*
X100814285Y-72823809D01*
X100814285Y-72680952D01*
X100861904Y-72490476D01*
X100909523Y-72395238D01*
X101004761Y-72300000D01*
X101147619Y-72252380D01*
X101242857Y-72252380D01*
X101385714Y-72300000D01*
X101433333Y-72347619D01*
X101814285Y-72347619D02*
X101861904Y-72300000D01*
X101957142Y-72252380D01*
X102195238Y-72252380D01*
X102290476Y-72300000D01*
X102338095Y-72347619D01*
X102385714Y-72442857D01*
X102385714Y-72538095D01*
X102338095Y-72680952D01*
X101766666Y-73252380D01*
X102385714Y-73252380D01*
%TO.C,R19*%
X111157142Y-106052380D02*
X110823809Y-105576190D01*
X110585714Y-106052380D02*
X110585714Y-105052380D01*
X110966666Y-105052380D01*
X111061904Y-105100000D01*
X111109523Y-105147619D01*
X111157142Y-105242857D01*
X111157142Y-105385714D01*
X111109523Y-105480952D01*
X111061904Y-105528571D01*
X110966666Y-105576190D01*
X110585714Y-105576190D01*
X112109523Y-106052380D02*
X111538095Y-106052380D01*
X111823809Y-106052380D02*
X111823809Y-105052380D01*
X111728571Y-105195238D01*
X111633333Y-105290476D01*
X111538095Y-105338095D01*
X112585714Y-106052380D02*
X112776190Y-106052380D01*
X112871428Y-106004761D01*
X112919047Y-105957142D01*
X113014285Y-105814285D01*
X113061904Y-105623809D01*
X113061904Y-105242857D01*
X113014285Y-105147619D01*
X112966666Y-105100000D01*
X112871428Y-105052380D01*
X112680952Y-105052380D01*
X112585714Y-105100000D01*
X112538095Y-105147619D01*
X112490476Y-105242857D01*
X112490476Y-105480952D01*
X112538095Y-105576190D01*
X112585714Y-105623809D01*
X112680952Y-105671428D01*
X112871428Y-105671428D01*
X112966666Y-105623809D01*
X113014285Y-105576190D01*
X113061904Y-105480952D01*
%TO.C,C1*%
X105633333Y-64957142D02*
X105585714Y-65004761D01*
X105442857Y-65052380D01*
X105347619Y-65052380D01*
X105204761Y-65004761D01*
X105109523Y-64909523D01*
X105061904Y-64814285D01*
X105014285Y-64623809D01*
X105014285Y-64480952D01*
X105061904Y-64290476D01*
X105109523Y-64195238D01*
X105204761Y-64100000D01*
X105347619Y-64052380D01*
X105442857Y-64052380D01*
X105585714Y-64100000D01*
X105633333Y-64147619D01*
X106585714Y-65052380D02*
X106014285Y-65052380D01*
X106300000Y-65052380D02*
X106300000Y-64052380D01*
X106204761Y-64195238D01*
X106109523Y-64290476D01*
X106014285Y-64338095D01*
%TO.C,C3*%
X110633333Y-97557142D02*
X110585714Y-97604761D01*
X110442857Y-97652380D01*
X110347619Y-97652380D01*
X110204761Y-97604761D01*
X110109523Y-97509523D01*
X110061904Y-97414285D01*
X110014285Y-97223809D01*
X110014285Y-97080952D01*
X110061904Y-96890476D01*
X110109523Y-96795238D01*
X110204761Y-96700000D01*
X110347619Y-96652380D01*
X110442857Y-96652380D01*
X110585714Y-96700000D01*
X110633333Y-96747619D01*
X110966666Y-96652380D02*
X111585714Y-96652380D01*
X111252380Y-97033333D01*
X111395238Y-97033333D01*
X111490476Y-97080952D01*
X111538095Y-97128571D01*
X111585714Y-97223809D01*
X111585714Y-97461904D01*
X111538095Y-97557142D01*
X111490476Y-97604761D01*
X111395238Y-97652380D01*
X111109523Y-97652380D01*
X111014285Y-97604761D01*
X110966666Y-97557142D01*
%TO.C,C4*%
X113433333Y-67757142D02*
X113385714Y-67804761D01*
X113242857Y-67852380D01*
X113147619Y-67852380D01*
X113004761Y-67804761D01*
X112909523Y-67709523D01*
X112861904Y-67614285D01*
X112814285Y-67423809D01*
X112814285Y-67280952D01*
X112861904Y-67090476D01*
X112909523Y-66995238D01*
X113004761Y-66900000D01*
X113147619Y-66852380D01*
X113242857Y-66852380D01*
X113385714Y-66900000D01*
X113433333Y-66947619D01*
X114290476Y-67185714D02*
X114290476Y-67852380D01*
X114052380Y-66804761D02*
X113814285Y-67519047D01*
X114433333Y-67519047D01*
%TO.C,C5*%
X105833333Y-70557142D02*
X105785714Y-70604761D01*
X105642857Y-70652380D01*
X105547619Y-70652380D01*
X105404761Y-70604761D01*
X105309523Y-70509523D01*
X105261904Y-70414285D01*
X105214285Y-70223809D01*
X105214285Y-70080952D01*
X105261904Y-69890476D01*
X105309523Y-69795238D01*
X105404761Y-69700000D01*
X105547619Y-69652380D01*
X105642857Y-69652380D01*
X105785714Y-69700000D01*
X105833333Y-69747619D01*
X106738095Y-69652380D02*
X106261904Y-69652380D01*
X106214285Y-70128571D01*
X106261904Y-70080952D01*
X106357142Y-70033333D01*
X106595238Y-70033333D01*
X106690476Y-70080952D01*
X106738095Y-70128571D01*
X106785714Y-70223809D01*
X106785714Y-70461904D01*
X106738095Y-70557142D01*
X106690476Y-70604761D01*
X106595238Y-70652380D01*
X106357142Y-70652380D01*
X106261904Y-70604761D01*
X106214285Y-70557142D01*
%TO.C,C6*%
X122633333Y-98057142D02*
X122585714Y-98104761D01*
X122442857Y-98152380D01*
X122347619Y-98152380D01*
X122204761Y-98104761D01*
X122109523Y-98009523D01*
X122061904Y-97914285D01*
X122014285Y-97723809D01*
X122014285Y-97580952D01*
X122061904Y-97390476D01*
X122109523Y-97295238D01*
X122204761Y-97200000D01*
X122347619Y-97152380D01*
X122442857Y-97152380D01*
X122585714Y-97200000D01*
X122633333Y-97247619D01*
X123490476Y-97152380D02*
X123300000Y-97152380D01*
X123204761Y-97200000D01*
X123157142Y-97247619D01*
X123061904Y-97390476D01*
X123014285Y-97580952D01*
X123014285Y-97961904D01*
X123061904Y-98057142D01*
X123109523Y-98104761D01*
X123204761Y-98152380D01*
X123395238Y-98152380D01*
X123490476Y-98104761D01*
X123538095Y-98057142D01*
X123585714Y-97961904D01*
X123585714Y-97723809D01*
X123538095Y-97628571D01*
X123490476Y-97580952D01*
X123395238Y-97533333D01*
X123204761Y-97533333D01*
X123109523Y-97580952D01*
X123061904Y-97628571D01*
X123014285Y-97723809D01*
%TO.C,C7*%
X116233333Y-111957142D02*
X116185714Y-112004761D01*
X116042857Y-112052380D01*
X115947619Y-112052380D01*
X115804761Y-112004761D01*
X115709523Y-111909523D01*
X115661904Y-111814285D01*
X115614285Y-111623809D01*
X115614285Y-111480952D01*
X115661904Y-111290476D01*
X115709523Y-111195238D01*
X115804761Y-111100000D01*
X115947619Y-111052380D01*
X116042857Y-111052380D01*
X116185714Y-111100000D01*
X116233333Y-111147619D01*
X116566666Y-111052380D02*
X117233333Y-111052380D01*
X116804761Y-112052380D01*
%TO.C,C8*%
X126233333Y-110657142D02*
X126185714Y-110704761D01*
X126042857Y-110752380D01*
X125947619Y-110752380D01*
X125804761Y-110704761D01*
X125709523Y-110609523D01*
X125661904Y-110514285D01*
X125614285Y-110323809D01*
X125614285Y-110180952D01*
X125661904Y-109990476D01*
X125709523Y-109895238D01*
X125804761Y-109800000D01*
X125947619Y-109752380D01*
X126042857Y-109752380D01*
X126185714Y-109800000D01*
X126233333Y-109847619D01*
X126804761Y-110180952D02*
X126709523Y-110133333D01*
X126661904Y-110085714D01*
X126614285Y-109990476D01*
X126614285Y-109942857D01*
X126661904Y-109847619D01*
X126709523Y-109800000D01*
X126804761Y-109752380D01*
X126995238Y-109752380D01*
X127090476Y-109800000D01*
X127138095Y-109847619D01*
X127185714Y-109942857D01*
X127185714Y-109990476D01*
X127138095Y-110085714D01*
X127090476Y-110133333D01*
X126995238Y-110180952D01*
X126804761Y-110180952D01*
X126709523Y-110228571D01*
X126661904Y-110276190D01*
X126614285Y-110371428D01*
X126614285Y-110561904D01*
X126661904Y-110657142D01*
X126709523Y-110704761D01*
X126804761Y-110752380D01*
X126995238Y-110752380D01*
X127090476Y-110704761D01*
X127138095Y-110657142D01*
X127185714Y-110561904D01*
X127185714Y-110371428D01*
X127138095Y-110276190D01*
X127090476Y-110228571D01*
X126995238Y-110180952D01*
%TO.C,C9*%
X129633333Y-99557142D02*
X129585714Y-99604761D01*
X129442857Y-99652380D01*
X129347619Y-99652380D01*
X129204761Y-99604761D01*
X129109523Y-99509523D01*
X129061904Y-99414285D01*
X129014285Y-99223809D01*
X129014285Y-99080952D01*
X129061904Y-98890476D01*
X129109523Y-98795238D01*
X129204761Y-98700000D01*
X129347619Y-98652380D01*
X129442857Y-98652380D01*
X129585714Y-98700000D01*
X129633333Y-98747619D01*
X130109523Y-99652380D02*
X130300000Y-99652380D01*
X130395238Y-99604761D01*
X130442857Y-99557142D01*
X130538095Y-99414285D01*
X130585714Y-99223809D01*
X130585714Y-98842857D01*
X130538095Y-98747619D01*
X130490476Y-98700000D01*
X130395238Y-98652380D01*
X130204761Y-98652380D01*
X130109523Y-98700000D01*
X130061904Y-98747619D01*
X130014285Y-98842857D01*
X130014285Y-99080952D01*
X130061904Y-99176190D01*
X130109523Y-99223809D01*
X130204761Y-99271428D01*
X130395238Y-99271428D01*
X130490476Y-99223809D01*
X130538095Y-99176190D01*
X130585714Y-99080952D01*
%TO.C,C10*%
X128957142Y-104057142D02*
X128909523Y-104104761D01*
X128766666Y-104152380D01*
X128671428Y-104152380D01*
X128528571Y-104104761D01*
X128433333Y-104009523D01*
X128385714Y-103914285D01*
X128338095Y-103723809D01*
X128338095Y-103580952D01*
X128385714Y-103390476D01*
X128433333Y-103295238D01*
X128528571Y-103200000D01*
X128671428Y-103152380D01*
X128766666Y-103152380D01*
X128909523Y-103200000D01*
X128957142Y-103247619D01*
X129909523Y-104152380D02*
X129338095Y-104152380D01*
X129623809Y-104152380D02*
X129623809Y-103152380D01*
X129528571Y-103295238D01*
X129433333Y-103390476D01*
X129338095Y-103438095D01*
X130528571Y-103152380D02*
X130623809Y-103152380D01*
X130719047Y-103200000D01*
X130766666Y-103247619D01*
X130814285Y-103342857D01*
X130861904Y-103533333D01*
X130861904Y-103771428D01*
X130814285Y-103961904D01*
X130766666Y-104057142D01*
X130719047Y-104104761D01*
X130623809Y-104152380D01*
X130528571Y-104152380D01*
X130433333Y-104104761D01*
X130385714Y-104057142D01*
X130338095Y-103961904D01*
X130290476Y-103771428D01*
X130290476Y-103533333D01*
X130338095Y-103342857D01*
X130385714Y-103247619D01*
X130433333Y-103200000D01*
X130528571Y-103152380D01*
%TO.C,J2*%
X102066666Y-104922380D02*
X102066666Y-105636666D01*
X102019047Y-105779523D01*
X101923809Y-105874761D01*
X101780952Y-105922380D01*
X101685714Y-105922380D01*
X102495238Y-105017619D02*
X102542857Y-104970000D01*
X102638095Y-104922380D01*
X102876190Y-104922380D01*
X102971428Y-104970000D01*
X103019047Y-105017619D01*
X103066666Y-105112857D01*
X103066666Y-105208095D01*
X103019047Y-105350952D01*
X102447619Y-105922380D01*
X103066666Y-105922380D01*
%TO.C,J3*%
X120522380Y-125933333D02*
X121236666Y-125933333D01*
X121379523Y-125980952D01*
X121474761Y-126076190D01*
X121522380Y-126219047D01*
X121522380Y-126314285D01*
X120522380Y-125552380D02*
X120522380Y-124933333D01*
X120903333Y-125266666D01*
X120903333Y-125123809D01*
X120950952Y-125028571D01*
X120998571Y-124980952D01*
X121093809Y-124933333D01*
X121331904Y-124933333D01*
X121427142Y-124980952D01*
X121474761Y-125028571D01*
X121522380Y-125123809D01*
X121522380Y-125409523D01*
X121474761Y-125504761D01*
X121427142Y-125552380D01*
%TO.C,J4*%
X137666666Y-80522380D02*
X137666666Y-81236666D01*
X137619047Y-81379523D01*
X137523809Y-81474761D01*
X137380952Y-81522380D01*
X137285714Y-81522380D01*
X138571428Y-80855714D02*
X138571428Y-81522380D01*
X138333333Y-80474761D02*
X138095238Y-81189047D01*
X138714285Y-81189047D01*
%TO.C,J5*%
X113722380Y-89133333D02*
X114436666Y-89133333D01*
X114579523Y-89180952D01*
X114674761Y-89276190D01*
X114722380Y-89419047D01*
X114722380Y-89514285D01*
X113722380Y-88180952D02*
X113722380Y-88657142D01*
X114198571Y-88704761D01*
X114150952Y-88657142D01*
X114103333Y-88561904D01*
X114103333Y-88323809D01*
X114150952Y-88228571D01*
X114198571Y-88180952D01*
X114293809Y-88133333D01*
X114531904Y-88133333D01*
X114627142Y-88180952D01*
X114674761Y-88228571D01*
X114722380Y-88323809D01*
X114722380Y-88561904D01*
X114674761Y-88657142D01*
X114627142Y-88704761D01*
%TO.C,R1*%
X117633333Y-65252380D02*
X117300000Y-64776190D01*
X117061904Y-65252380D02*
X117061904Y-64252380D01*
X117442857Y-64252380D01*
X117538095Y-64300000D01*
X117585714Y-64347619D01*
X117633333Y-64442857D01*
X117633333Y-64585714D01*
X117585714Y-64680952D01*
X117538095Y-64728571D01*
X117442857Y-64776190D01*
X117061904Y-64776190D01*
X118585714Y-65252380D02*
X118014285Y-65252380D01*
X118300000Y-65252380D02*
X118300000Y-64252380D01*
X118204761Y-64395238D01*
X118109523Y-64490476D01*
X118014285Y-64538095D01*
%TO.C,R2*%
X117433333Y-98002380D02*
X117100000Y-97526190D01*
X116861904Y-98002380D02*
X116861904Y-97002380D01*
X117242857Y-97002380D01*
X117338095Y-97050000D01*
X117385714Y-97097619D01*
X117433333Y-97192857D01*
X117433333Y-97335714D01*
X117385714Y-97430952D01*
X117338095Y-97478571D01*
X117242857Y-97526190D01*
X116861904Y-97526190D01*
X117814285Y-97097619D02*
X117861904Y-97050000D01*
X117957142Y-97002380D01*
X118195238Y-97002380D01*
X118290476Y-97050000D01*
X118338095Y-97097619D01*
X118385714Y-97192857D01*
X118385714Y-97288095D01*
X118338095Y-97430952D01*
X117766666Y-98002380D01*
X118385714Y-98002380D01*
%TO.C,R3*%
X110833333Y-101652380D02*
X110500000Y-101176190D01*
X110261904Y-101652380D02*
X110261904Y-100652380D01*
X110642857Y-100652380D01*
X110738095Y-100700000D01*
X110785714Y-100747619D01*
X110833333Y-100842857D01*
X110833333Y-100985714D01*
X110785714Y-101080952D01*
X110738095Y-101128571D01*
X110642857Y-101176190D01*
X110261904Y-101176190D01*
X111166666Y-100652380D02*
X111785714Y-100652380D01*
X111452380Y-101033333D01*
X111595238Y-101033333D01*
X111690476Y-101080952D01*
X111738095Y-101128571D01*
X111785714Y-101223809D01*
X111785714Y-101461904D01*
X111738095Y-101557142D01*
X111690476Y-101604761D01*
X111595238Y-101652380D01*
X111309523Y-101652380D01*
X111214285Y-101604761D01*
X111166666Y-101557142D01*
%TO.C,R4*%
X105633333Y-104852380D02*
X105300000Y-104376190D01*
X105061904Y-104852380D02*
X105061904Y-103852380D01*
X105442857Y-103852380D01*
X105538095Y-103900000D01*
X105585714Y-103947619D01*
X105633333Y-104042857D01*
X105633333Y-104185714D01*
X105585714Y-104280952D01*
X105538095Y-104328571D01*
X105442857Y-104376190D01*
X105061904Y-104376190D01*
X106490476Y-104185714D02*
X106490476Y-104852380D01*
X106252380Y-103804761D02*
X106014285Y-104519047D01*
X106633333Y-104519047D01*
%TO.C,R5*%
X105633333Y-106852380D02*
X105300000Y-106376190D01*
X105061904Y-106852380D02*
X105061904Y-105852380D01*
X105442857Y-105852380D01*
X105538095Y-105900000D01*
X105585714Y-105947619D01*
X105633333Y-106042857D01*
X105633333Y-106185714D01*
X105585714Y-106280952D01*
X105538095Y-106328571D01*
X105442857Y-106376190D01*
X105061904Y-106376190D01*
X106538095Y-105852380D02*
X106061904Y-105852380D01*
X106014285Y-106328571D01*
X106061904Y-106280952D01*
X106157142Y-106233333D01*
X106395238Y-106233333D01*
X106490476Y-106280952D01*
X106538095Y-106328571D01*
X106585714Y-106423809D01*
X106585714Y-106661904D01*
X106538095Y-106757142D01*
X106490476Y-106804761D01*
X106395238Y-106852380D01*
X106157142Y-106852380D01*
X106061904Y-106804761D01*
X106014285Y-106757142D01*
%TO.C,R6*%
X105633333Y-108852380D02*
X105300000Y-108376190D01*
X105061904Y-108852380D02*
X105061904Y-107852380D01*
X105442857Y-107852380D01*
X105538095Y-107900000D01*
X105585714Y-107947619D01*
X105633333Y-108042857D01*
X105633333Y-108185714D01*
X105585714Y-108280952D01*
X105538095Y-108328571D01*
X105442857Y-108376190D01*
X105061904Y-108376190D01*
X106490476Y-107852380D02*
X106300000Y-107852380D01*
X106204761Y-107900000D01*
X106157142Y-107947619D01*
X106061904Y-108090476D01*
X106014285Y-108280952D01*
X106014285Y-108661904D01*
X106061904Y-108757142D01*
X106109523Y-108804761D01*
X106204761Y-108852380D01*
X106395238Y-108852380D01*
X106490476Y-108804761D01*
X106538095Y-108757142D01*
X106585714Y-108661904D01*
X106585714Y-108423809D01*
X106538095Y-108328571D01*
X106490476Y-108280952D01*
X106395238Y-108233333D01*
X106204761Y-108233333D01*
X106109523Y-108280952D01*
X106061904Y-108328571D01*
X106014285Y-108423809D01*
%TO.C,R7*%
X107433333Y-101052380D02*
X107100000Y-100576190D01*
X106861904Y-101052380D02*
X106861904Y-100052380D01*
X107242857Y-100052380D01*
X107338095Y-100100000D01*
X107385714Y-100147619D01*
X107433333Y-100242857D01*
X107433333Y-100385714D01*
X107385714Y-100480952D01*
X107338095Y-100528571D01*
X107242857Y-100576190D01*
X106861904Y-100576190D01*
X107766666Y-100052380D02*
X108433333Y-100052380D01*
X108004761Y-101052380D01*
%TO.C,R8*%
X110833333Y-99652380D02*
X110500000Y-99176190D01*
X110261904Y-99652380D02*
X110261904Y-98652380D01*
X110642857Y-98652380D01*
X110738095Y-98700000D01*
X110785714Y-98747619D01*
X110833333Y-98842857D01*
X110833333Y-98985714D01*
X110785714Y-99080952D01*
X110738095Y-99128571D01*
X110642857Y-99176190D01*
X110261904Y-99176190D01*
X111404761Y-99080952D02*
X111309523Y-99033333D01*
X111261904Y-98985714D01*
X111214285Y-98890476D01*
X111214285Y-98842857D01*
X111261904Y-98747619D01*
X111309523Y-98700000D01*
X111404761Y-98652380D01*
X111595238Y-98652380D01*
X111690476Y-98700000D01*
X111738095Y-98747619D01*
X111785714Y-98842857D01*
X111785714Y-98890476D01*
X111738095Y-98985714D01*
X111690476Y-99033333D01*
X111595238Y-99080952D01*
X111404761Y-99080952D01*
X111309523Y-99128571D01*
X111261904Y-99176190D01*
X111214285Y-99271428D01*
X111214285Y-99461904D01*
X111261904Y-99557142D01*
X111309523Y-99604761D01*
X111404761Y-99652380D01*
X111595238Y-99652380D01*
X111690476Y-99604761D01*
X111738095Y-99557142D01*
X111785714Y-99461904D01*
X111785714Y-99271428D01*
X111738095Y-99176190D01*
X111690476Y-99128571D01*
X111595238Y-99080952D01*
%TO.C,R9*%
X119052380Y-117766666D02*
X118576190Y-118100000D01*
X119052380Y-118338095D02*
X118052380Y-118338095D01*
X118052380Y-117957142D01*
X118100000Y-117861904D01*
X118147619Y-117814285D01*
X118242857Y-117766666D01*
X118385714Y-117766666D01*
X118480952Y-117814285D01*
X118528571Y-117861904D01*
X118576190Y-117957142D01*
X118576190Y-118338095D01*
X119052380Y-117290476D02*
X119052380Y-117100000D01*
X119004761Y-117004761D01*
X118957142Y-116957142D01*
X118814285Y-116861904D01*
X118623809Y-116814285D01*
X118242857Y-116814285D01*
X118147619Y-116861904D01*
X118100000Y-116909523D01*
X118052380Y-117004761D01*
X118052380Y-117195238D01*
X118100000Y-117290476D01*
X118147619Y-117338095D01*
X118242857Y-117385714D01*
X118480952Y-117385714D01*
X118576190Y-117338095D01*
X118623809Y-117290476D01*
X118671428Y-117195238D01*
X118671428Y-117004761D01*
X118623809Y-116909523D01*
X118576190Y-116861904D01*
X118480952Y-116814285D01*
%TO.C,R10*%
X121252380Y-118642857D02*
X120776190Y-118976190D01*
X121252380Y-119214285D02*
X120252380Y-119214285D01*
X120252380Y-118833333D01*
X120300000Y-118738095D01*
X120347619Y-118690476D01*
X120442857Y-118642857D01*
X120585714Y-118642857D01*
X120680952Y-118690476D01*
X120728571Y-118738095D01*
X120776190Y-118833333D01*
X120776190Y-119214285D01*
X121252380Y-117690476D02*
X121252380Y-118261904D01*
X121252380Y-117976190D02*
X120252380Y-117976190D01*
X120395238Y-118071428D01*
X120490476Y-118166666D01*
X120538095Y-118261904D01*
X120252380Y-117071428D02*
X120252380Y-116976190D01*
X120300000Y-116880952D01*
X120347619Y-116833333D01*
X120442857Y-116785714D01*
X120633333Y-116738095D01*
X120871428Y-116738095D01*
X121061904Y-116785714D01*
X121157142Y-116833333D01*
X121204761Y-116880952D01*
X121252380Y-116976190D01*
X121252380Y-117071428D01*
X121204761Y-117166666D01*
X121157142Y-117214285D01*
X121061904Y-117261904D01*
X120871428Y-117309523D01*
X120633333Y-117309523D01*
X120442857Y-117261904D01*
X120347619Y-117214285D01*
X120300000Y-117166666D01*
X120252380Y-117071428D01*
%TO.C,R11*%
X123452380Y-118642857D02*
X122976190Y-118976190D01*
X123452380Y-119214285D02*
X122452380Y-119214285D01*
X122452380Y-118833333D01*
X122500000Y-118738095D01*
X122547619Y-118690476D01*
X122642857Y-118642857D01*
X122785714Y-118642857D01*
X122880952Y-118690476D01*
X122928571Y-118738095D01*
X122976190Y-118833333D01*
X122976190Y-119214285D01*
X123452380Y-117690476D02*
X123452380Y-118261904D01*
X123452380Y-117976190D02*
X122452380Y-117976190D01*
X122595238Y-118071428D01*
X122690476Y-118166666D01*
X122738095Y-118261904D01*
X123452380Y-116738095D02*
X123452380Y-117309523D01*
X123452380Y-117023809D02*
X122452380Y-117023809D01*
X122595238Y-117119047D01*
X122690476Y-117214285D01*
X122738095Y-117309523D01*
%TO.C,R12*%
X125652380Y-118642857D02*
X125176190Y-118976190D01*
X125652380Y-119214285D02*
X124652380Y-119214285D01*
X124652380Y-118833333D01*
X124700000Y-118738095D01*
X124747619Y-118690476D01*
X124842857Y-118642857D01*
X124985714Y-118642857D01*
X125080952Y-118690476D01*
X125128571Y-118738095D01*
X125176190Y-118833333D01*
X125176190Y-119214285D01*
X125652380Y-117690476D02*
X125652380Y-118261904D01*
X125652380Y-117976190D02*
X124652380Y-117976190D01*
X124795238Y-118071428D01*
X124890476Y-118166666D01*
X124938095Y-118261904D01*
X124747619Y-117309523D02*
X124700000Y-117261904D01*
X124652380Y-117166666D01*
X124652380Y-116928571D01*
X124700000Y-116833333D01*
X124747619Y-116785714D01*
X124842857Y-116738095D01*
X124938095Y-116738095D01*
X125080952Y-116785714D01*
X125652380Y-117357142D01*
X125652380Y-116738095D01*
%TO.C,R13*%
X127852380Y-118642857D02*
X127376190Y-118976190D01*
X127852380Y-119214285D02*
X126852380Y-119214285D01*
X126852380Y-118833333D01*
X126900000Y-118738095D01*
X126947619Y-118690476D01*
X127042857Y-118642857D01*
X127185714Y-118642857D01*
X127280952Y-118690476D01*
X127328571Y-118738095D01*
X127376190Y-118833333D01*
X127376190Y-119214285D01*
X127852380Y-117690476D02*
X127852380Y-118261904D01*
X127852380Y-117976190D02*
X126852380Y-117976190D01*
X126995238Y-118071428D01*
X127090476Y-118166666D01*
X127138095Y-118261904D01*
X126852380Y-117357142D02*
X126852380Y-116738095D01*
X127233333Y-117071428D01*
X127233333Y-116928571D01*
X127280952Y-116833333D01*
X127328571Y-116785714D01*
X127423809Y-116738095D01*
X127661904Y-116738095D01*
X127757142Y-116785714D01*
X127804761Y-116833333D01*
X127852380Y-116928571D01*
X127852380Y-117214285D01*
X127804761Y-117309523D01*
X127757142Y-117357142D01*
%TO.C,R14*%
X127357142Y-102052380D02*
X127023809Y-101576190D01*
X126785714Y-102052380D02*
X126785714Y-101052380D01*
X127166666Y-101052380D01*
X127261904Y-101100000D01*
X127309523Y-101147619D01*
X127357142Y-101242857D01*
X127357142Y-101385714D01*
X127309523Y-101480952D01*
X127261904Y-101528571D01*
X127166666Y-101576190D01*
X126785714Y-101576190D01*
X128309523Y-102052380D02*
X127738095Y-102052380D01*
X128023809Y-102052380D02*
X128023809Y-101052380D01*
X127928571Y-101195238D01*
X127833333Y-101290476D01*
X127738095Y-101338095D01*
X129166666Y-101385714D02*
X129166666Y-102052380D01*
X128928571Y-101004761D02*
X128690476Y-101719047D01*
X129309523Y-101719047D01*
%TO.C,R15*%
X130557142Y-94002380D02*
X130223809Y-93526190D01*
X129985714Y-94002380D02*
X129985714Y-93002380D01*
X130366666Y-93002380D01*
X130461904Y-93050000D01*
X130509523Y-93097619D01*
X130557142Y-93192857D01*
X130557142Y-93335714D01*
X130509523Y-93430952D01*
X130461904Y-93478571D01*
X130366666Y-93526190D01*
X129985714Y-93526190D01*
X131509523Y-94002380D02*
X130938095Y-94002380D01*
X131223809Y-94002380D02*
X131223809Y-93002380D01*
X131128571Y-93145238D01*
X131033333Y-93240476D01*
X130938095Y-93288095D01*
X132414285Y-93002380D02*
X131938095Y-93002380D01*
X131890476Y-93478571D01*
X131938095Y-93430952D01*
X132033333Y-93383333D01*
X132271428Y-93383333D01*
X132366666Y-93430952D01*
X132414285Y-93478571D01*
X132461904Y-93573809D01*
X132461904Y-93811904D01*
X132414285Y-93907142D01*
X132366666Y-93954761D01*
X132271428Y-94002380D01*
X132033333Y-94002380D01*
X131938095Y-93954761D01*
X131890476Y-93907142D01*
%TO.C,R16*%
X132757142Y-111902380D02*
X132423809Y-111426190D01*
X132185714Y-111902380D02*
X132185714Y-110902380D01*
X132566666Y-110902380D01*
X132661904Y-110950000D01*
X132709523Y-110997619D01*
X132757142Y-111092857D01*
X132757142Y-111235714D01*
X132709523Y-111330952D01*
X132661904Y-111378571D01*
X132566666Y-111426190D01*
X132185714Y-111426190D01*
X133709523Y-111902380D02*
X133138095Y-111902380D01*
X133423809Y-111902380D02*
X133423809Y-110902380D01*
X133328571Y-111045238D01*
X133233333Y-111140476D01*
X133138095Y-111188095D01*
X134566666Y-110902380D02*
X134376190Y-110902380D01*
X134280952Y-110950000D01*
X134233333Y-110997619D01*
X134138095Y-111140476D01*
X134090476Y-111330952D01*
X134090476Y-111711904D01*
X134138095Y-111807142D01*
X134185714Y-111854761D01*
X134280952Y-111902380D01*
X134471428Y-111902380D01*
X134566666Y-111854761D01*
X134614285Y-111807142D01*
X134661904Y-111711904D01*
X134661904Y-111473809D01*
X134614285Y-111378571D01*
X134566666Y-111330952D01*
X134471428Y-111283333D01*
X134280952Y-111283333D01*
X134185714Y-111330952D01*
X134138095Y-111378571D01*
X134090476Y-111473809D01*
%TO.C,R17*%
X123957142Y-65052380D02*
X123623809Y-64576190D01*
X123385714Y-65052380D02*
X123385714Y-64052380D01*
X123766666Y-64052380D01*
X123861904Y-64100000D01*
X123909523Y-64147619D01*
X123957142Y-64242857D01*
X123957142Y-64385714D01*
X123909523Y-64480952D01*
X123861904Y-64528571D01*
X123766666Y-64576190D01*
X123385714Y-64576190D01*
X124909523Y-65052380D02*
X124338095Y-65052380D01*
X124623809Y-65052380D02*
X124623809Y-64052380D01*
X124528571Y-64195238D01*
X124433333Y-64290476D01*
X124338095Y-64338095D01*
X125242857Y-64052380D02*
X125909523Y-64052380D01*
X125480952Y-65052380D01*
%TO.C,R18*%
X130157142Y-65052380D02*
X129823809Y-64576190D01*
X129585714Y-65052380D02*
X129585714Y-64052380D01*
X129966666Y-64052380D01*
X130061904Y-64100000D01*
X130109523Y-64147619D01*
X130157142Y-64242857D01*
X130157142Y-64385714D01*
X130109523Y-64480952D01*
X130061904Y-64528571D01*
X129966666Y-64576190D01*
X129585714Y-64576190D01*
X131109523Y-65052380D02*
X130538095Y-65052380D01*
X130823809Y-65052380D02*
X130823809Y-64052380D01*
X130728571Y-64195238D01*
X130633333Y-64290476D01*
X130538095Y-64338095D01*
X131680952Y-64480952D02*
X131585714Y-64433333D01*
X131538095Y-64385714D01*
X131490476Y-64290476D01*
X131490476Y-64242857D01*
X131538095Y-64147619D01*
X131585714Y-64100000D01*
X131680952Y-64052380D01*
X131871428Y-64052380D01*
X131966666Y-64100000D01*
X132014285Y-64147619D01*
X132061904Y-64242857D01*
X132061904Y-64290476D01*
X132014285Y-64385714D01*
X131966666Y-64433333D01*
X131871428Y-64480952D01*
X131680952Y-64480952D01*
X131585714Y-64528571D01*
X131538095Y-64576190D01*
X131490476Y-64671428D01*
X131490476Y-64861904D01*
X131538095Y-64957142D01*
X131585714Y-65004761D01*
X131680952Y-65052380D01*
X131871428Y-65052380D01*
X131966666Y-65004761D01*
X132014285Y-64957142D01*
X132061904Y-64861904D01*
X132061904Y-64671428D01*
X132014285Y-64576190D01*
X131966666Y-64528571D01*
X131871428Y-64480952D01*
%TO.C,R20*%
X110357142Y-112652380D02*
X110023809Y-112176190D01*
X109785714Y-112652380D02*
X109785714Y-111652380D01*
X110166666Y-111652380D01*
X110261904Y-111700000D01*
X110309523Y-111747619D01*
X110357142Y-111842857D01*
X110357142Y-111985714D01*
X110309523Y-112080952D01*
X110261904Y-112128571D01*
X110166666Y-112176190D01*
X109785714Y-112176190D01*
X110738095Y-111747619D02*
X110785714Y-111700000D01*
X110880952Y-111652380D01*
X111119047Y-111652380D01*
X111214285Y-111700000D01*
X111261904Y-111747619D01*
X111309523Y-111842857D01*
X111309523Y-111938095D01*
X111261904Y-112080952D01*
X110690476Y-112652380D01*
X111309523Y-112652380D01*
X111928571Y-111652380D02*
X112023809Y-111652380D01*
X112119047Y-111700000D01*
X112166666Y-111747619D01*
X112214285Y-111842857D01*
X112261904Y-112033333D01*
X112261904Y-112271428D01*
X112214285Y-112461904D01*
X112166666Y-112557142D01*
X112119047Y-112604761D01*
X112023809Y-112652380D01*
X111928571Y-112652380D01*
X111833333Y-112604761D01*
X111785714Y-112557142D01*
X111738095Y-112461904D01*
X111690476Y-112271428D01*
X111690476Y-112033333D01*
X111738095Y-111842857D01*
X111785714Y-111747619D01*
X111833333Y-111700000D01*
X111928571Y-111652380D01*
%TO.C,U1*%
X120188095Y-101502380D02*
X120188095Y-102311904D01*
X120235714Y-102407142D01*
X120283333Y-102454761D01*
X120378571Y-102502380D01*
X120569047Y-102502380D01*
X120664285Y-102454761D01*
X120711904Y-102407142D01*
X120759523Y-102311904D01*
X120759523Y-101502380D01*
X121759523Y-102502380D02*
X121188095Y-102502380D01*
X121473809Y-102502380D02*
X121473809Y-101502380D01*
X121378571Y-101645238D01*
X121283333Y-101740476D01*
X121188095Y-101788095D01*
%TO.C,U2*%
X120238095Y-69452380D02*
X120238095Y-70261904D01*
X120285714Y-70357142D01*
X120333333Y-70404761D01*
X120428571Y-70452380D01*
X120619047Y-70452380D01*
X120714285Y-70404761D01*
X120761904Y-70357142D01*
X120809523Y-70261904D01*
X120809523Y-69452380D01*
X121238095Y-69547619D02*
X121285714Y-69500000D01*
X121380952Y-69452380D01*
X121619047Y-69452380D01*
X121714285Y-69500000D01*
X121761904Y-69547619D01*
X121809523Y-69642857D01*
X121809523Y-69738095D01*
X121761904Y-69880952D01*
X121190476Y-70452380D01*
X121809523Y-70452380D01*
%TO.C,U3*%
X108838095Y-63852380D02*
X108838095Y-64661904D01*
X108885714Y-64757142D01*
X108933333Y-64804761D01*
X109028571Y-64852380D01*
X109219047Y-64852380D01*
X109314285Y-64804761D01*
X109361904Y-64757142D01*
X109409523Y-64661904D01*
X109409523Y-63852380D01*
X109790476Y-63852380D02*
X110409523Y-63852380D01*
X110076190Y-64233333D01*
X110219047Y-64233333D01*
X110314285Y-64280952D01*
X110361904Y-64328571D01*
X110409523Y-64423809D01*
X110409523Y-64661904D01*
X110361904Y-64757142D01*
X110314285Y-64804761D01*
X110219047Y-64852380D01*
X109933333Y-64852380D01*
X109838095Y-64804761D01*
X109790476Y-64757142D01*
%TO.C,U4*%
X112638095Y-72852380D02*
X112638095Y-73661904D01*
X112685714Y-73757142D01*
X112733333Y-73804761D01*
X112828571Y-73852380D01*
X113019047Y-73852380D01*
X113114285Y-73804761D01*
X113161904Y-73757142D01*
X113209523Y-73661904D01*
X113209523Y-72852380D01*
X114114285Y-73185714D02*
X114114285Y-73852380D01*
X113876190Y-72804761D02*
X113638095Y-73519047D01*
X114257142Y-73519047D01*
%TO.C,U5*%
X126638095Y-69452380D02*
X126638095Y-70261904D01*
X126685714Y-70357142D01*
X126733333Y-70404761D01*
X126828571Y-70452380D01*
X127019047Y-70452380D01*
X127114285Y-70404761D01*
X127161904Y-70357142D01*
X127209523Y-70261904D01*
X127209523Y-69452380D01*
X128161904Y-69452380D02*
X127685714Y-69452380D01*
X127638095Y-69928571D01*
X127685714Y-69880952D01*
X127780952Y-69833333D01*
X128019047Y-69833333D01*
X128114285Y-69880952D01*
X128161904Y-69928571D01*
X128209523Y-70023809D01*
X128209523Y-70261904D01*
X128161904Y-70357142D01*
X128114285Y-70404761D01*
X128019047Y-70452380D01*
X127780952Y-70452380D01*
X127685714Y-70404761D01*
X127638095Y-70357142D01*
%TO.C,U6*%
X132238095Y-69452380D02*
X132238095Y-70261904D01*
X132285714Y-70357142D01*
X132333333Y-70404761D01*
X132428571Y-70452380D01*
X132619047Y-70452380D01*
X132714285Y-70404761D01*
X132761904Y-70357142D01*
X132809523Y-70261904D01*
X132809523Y-69452380D01*
X133714285Y-69452380D02*
X133523809Y-69452380D01*
X133428571Y-69500000D01*
X133380952Y-69547619D01*
X133285714Y-69690476D01*
X133238095Y-69880952D01*
X133238095Y-70261904D01*
X133285714Y-70357142D01*
X133333333Y-70404761D01*
X133428571Y-70452380D01*
X133619047Y-70452380D01*
X133714285Y-70404761D01*
X133761904Y-70357142D01*
X133809523Y-70261904D01*
X133809523Y-70023809D01*
X133761904Y-69928571D01*
X133714285Y-69880952D01*
X133619047Y-69833333D01*
X133428571Y-69833333D01*
X133333333Y-69880952D01*
X133285714Y-69928571D01*
X133238095Y-70023809D01*
%TO.C,J1*%
X98266666Y-63722380D02*
X98266666Y-64436666D01*
X98219047Y-64579523D01*
X98123809Y-64674761D01*
X97980952Y-64722380D01*
X97885714Y-64722380D01*
X99266666Y-64722380D02*
X98695238Y-64722380D01*
X98980952Y-64722380D02*
X98980952Y-63722380D01*
X98885714Y-63865238D01*
X98790476Y-63960476D01*
X98695238Y-64008095D01*
%TO.C,J6*%
X131122380Y-59533333D02*
X131836666Y-59533333D01*
X131979523Y-59580952D01*
X132074761Y-59676190D01*
X132122380Y-59819047D01*
X132122380Y-59914285D01*
X131122380Y-58628571D02*
X131122380Y-58819047D01*
X131170000Y-58914285D01*
X131217619Y-58961904D01*
X131360476Y-59057142D01*
X131550952Y-59104761D01*
X131931904Y-59104761D01*
X132027142Y-59057142D01*
X132074761Y-59009523D01*
X132122380Y-58914285D01*
X132122380Y-58723809D01*
X132074761Y-58628571D01*
X132027142Y-58580952D01*
X131931904Y-58533333D01*
X131693809Y-58533333D01*
X131598571Y-58580952D01*
X131550952Y-58628571D01*
X131503333Y-58723809D01*
X131503333Y-58914285D01*
X131550952Y-59009523D01*
X131598571Y-59057142D01*
X131693809Y-59104761D01*
%TO.C,RV1*%
X101204761Y-93052380D02*
X100871428Y-92576190D01*
X100633333Y-93052380D02*
X100633333Y-92052380D01*
X101014285Y-92052380D01*
X101109523Y-92100000D01*
X101157142Y-92147619D01*
X101204761Y-92242857D01*
X101204761Y-92385714D01*
X101157142Y-92480952D01*
X101109523Y-92528571D01*
X101014285Y-92576190D01*
X100633333Y-92576190D01*
X101490476Y-92052380D02*
X101823809Y-93052380D01*
X102157142Y-92052380D01*
X103014285Y-93052380D02*
X102442857Y-93052380D01*
X102728571Y-93052380D02*
X102728571Y-92052380D01*
X102633333Y-92195238D01*
X102538095Y-92290476D01*
X102442857Y-92338095D01*
%TO.C,RV2*%
X140204761Y-100252380D02*
X139871428Y-99776190D01*
X139633333Y-100252380D02*
X139633333Y-99252380D01*
X140014285Y-99252380D01*
X140109523Y-99300000D01*
X140157142Y-99347619D01*
X140204761Y-99442857D01*
X140204761Y-99585714D01*
X140157142Y-99680952D01*
X140109523Y-99728571D01*
X140014285Y-99776190D01*
X139633333Y-99776190D01*
X140490476Y-99252380D02*
X140823809Y-100252380D01*
X141157142Y-99252380D01*
X141442857Y-99347619D02*
X141490476Y-99300000D01*
X141585714Y-99252380D01*
X141823809Y-99252380D01*
X141919047Y-99300000D01*
X141966666Y-99347619D01*
X142014285Y-99442857D01*
X142014285Y-99538095D01*
X141966666Y-99680952D01*
X141395238Y-100252380D01*
X142014285Y-100252380D01*
%TO.C,RV3*%
X110204761Y-120452380D02*
X109871428Y-119976190D01*
X109633333Y-120452380D02*
X109633333Y-119452380D01*
X110014285Y-119452380D01*
X110109523Y-119500000D01*
X110157142Y-119547619D01*
X110204761Y-119642857D01*
X110204761Y-119785714D01*
X110157142Y-119880952D01*
X110109523Y-119928571D01*
X110014285Y-119976190D01*
X109633333Y-119976190D01*
X110490476Y-119452380D02*
X110823809Y-120452380D01*
X111157142Y-119452380D01*
X111395238Y-119452380D02*
X112014285Y-119452380D01*
X111680952Y-119833333D01*
X111823809Y-119833333D01*
X111919047Y-119880952D01*
X111966666Y-119928571D01*
X112014285Y-120023809D01*
X112014285Y-120261904D01*
X111966666Y-120357142D01*
X111919047Y-120404761D01*
X111823809Y-120452380D01*
X111538095Y-120452380D01*
X111442857Y-120404761D01*
X111395238Y-120357142D01*
%TO.C,C11*%
X108557142Y-88557142D02*
X108509523Y-88604761D01*
X108366666Y-88652380D01*
X108271428Y-88652380D01*
X108128571Y-88604761D01*
X108033333Y-88509523D01*
X107985714Y-88414285D01*
X107938095Y-88223809D01*
X107938095Y-88080952D01*
X107985714Y-87890476D01*
X108033333Y-87795238D01*
X108128571Y-87700000D01*
X108271428Y-87652380D01*
X108366666Y-87652380D01*
X108509523Y-87700000D01*
X108557142Y-87747619D01*
X109509523Y-88652380D02*
X108938095Y-88652380D01*
X109223809Y-88652380D02*
X109223809Y-87652380D01*
X109128571Y-87795238D01*
X109033333Y-87890476D01*
X108938095Y-87938095D01*
X110461904Y-88652380D02*
X109890476Y-88652380D01*
X110176190Y-88652380D02*
X110176190Y-87652380D01*
X110080952Y-87795238D01*
X109985714Y-87890476D01*
X109890476Y-87938095D01*
X108081428Y-90000952D02*
X108081428Y-89239047D01*
X108462380Y-89620000D02*
X107700476Y-89620000D01*
%TO.C,J7*%
X111582380Y-84133333D02*
X112296666Y-84133333D01*
X112439523Y-84180952D01*
X112534761Y-84276190D01*
X112582380Y-84419047D01*
X112582380Y-84514285D01*
X111582380Y-83752380D02*
X111582380Y-83085714D01*
X112582380Y-83514285D01*
%TO.C,TP1*%
X136738095Y-69842380D02*
X137309523Y-69842380D01*
X137023809Y-70842380D02*
X137023809Y-69842380D01*
X137642857Y-70842380D02*
X137642857Y-69842380D01*
X138023809Y-69842380D01*
X138119047Y-69890000D01*
X138166666Y-69937619D01*
X138214285Y-70032857D01*
X138214285Y-70175714D01*
X138166666Y-70270952D01*
X138119047Y-70318571D01*
X138023809Y-70366190D01*
X137642857Y-70366190D01*
X139166666Y-70842380D02*
X138595238Y-70842380D01*
X138880952Y-70842380D02*
X138880952Y-69842380D01*
X138785714Y-69985238D01*
X138690476Y-70080476D01*
X138595238Y-70128095D01*
%TD*%
M02*
