%TF.GenerationSoftware,KiCad,Pcbnew,5.1.6-c6e7f7d~87~ubuntu20.04.1*%
%TF.CreationDate,2020-11-07T15:56:43+00:00*%
%TF.ProjectId,ssi2130_vco,73736932-3133-4305-9f76-636f2e6b6963,1.1*%
%TF.SameCoordinates,Original*%
%TF.FileFunction,Soldermask,Bot*%
%TF.FilePolarity,Negative*%
%FSLAX46Y46*%
G04 Gerber Fmt 4.6, Leading zero omitted, Abs format (unit mm)*
G04 Created by KiCad (PCBNEW 5.1.6-c6e7f7d~87~ubuntu20.04.1) date 2020-11-07 15:56:43*
%MOMM*%
%LPD*%
G01*
G04 APERTURE LIST*
%ADD10C,5.700000*%
%ADD11R,1.800000X1.800000*%
%ADD12O,1.800000X1.800000*%
%ADD13C,1.540000*%
%ADD14C,3.600120*%
G04 APERTURE END LIST*
D10*
%TO.C,REF\u002A\u002A*%
X97200000Y-126400000D03*
%TD*%
%TO.C,REF\u002A\u002A*%
X144600000Y-126400000D03*
%TD*%
%TO.C,REF\u002A\u002A*%
X144600000Y-60000000D03*
%TD*%
%TO.C,REF\u002A\u002A*%
X97200000Y-60000000D03*
%TD*%
D11*
%TO.C,J2*%
X102400000Y-107800000D03*
D12*
X102400000Y-110340000D03*
X102400000Y-112880000D03*
X102400000Y-115420000D03*
X102400000Y-117960000D03*
%TD*%
D11*
%TO.C,J3*%
X123400000Y-125600000D03*
D12*
X125940000Y-125600000D03*
X128480000Y-125600000D03*
X131020000Y-125600000D03*
X133560000Y-125600000D03*
%TD*%
%TO.C,J4*%
X138000000Y-93560000D03*
X138000000Y-91020000D03*
X138000000Y-88480000D03*
X138000000Y-85940000D03*
D11*
X138000000Y-83400000D03*
%TD*%
D12*
%TO.C,J5*%
X129300000Y-88800000D03*
X126760000Y-88800000D03*
X124220000Y-88800000D03*
X121680000Y-88800000D03*
X119140000Y-88800000D03*
D11*
X116600000Y-88800000D03*
%TD*%
%TO.C,J1*%
X98600000Y-66600000D03*
D12*
X98600000Y-69140000D03*
X98600000Y-71680000D03*
%TD*%
%TO.C,J6*%
X139080000Y-59200000D03*
X136540000Y-59200000D03*
D11*
X134000000Y-59200000D03*
%TD*%
D13*
%TO.C,RV1*%
X103200000Y-101080000D03*
X103200000Y-98540000D03*
X103200000Y-96000000D03*
%TD*%
%TO.C,RV2*%
X139400000Y-103200000D03*
X139400000Y-105740000D03*
X139400000Y-108280000D03*
%TD*%
%TO.C,RV3*%
X116940000Y-123600000D03*
X114400000Y-123600000D03*
X111860000Y-123600000D03*
%TD*%
D12*
%TO.C,J7*%
X104720000Y-83800000D03*
X107260000Y-83800000D03*
D11*
X109800000Y-83800000D03*
%TD*%
D14*
%TO.C,TP1*%
X138000000Y-74200000D03*
%TD*%
M02*
