M48
METRIC
T1C0.400
T2C0.800
T3C1.000
T4C1.199
T5C3.200
%
G90
G05
T1
X106.23Y-94.78
X111.6Y-104.4
X112.2Y-94.8
X113.475Y-91.0
X114.6Y-104.2
X114.635Y-105.386
X115.38Y-94.78
X119.0Y-101.2
X121.4Y-94.8
X122.049Y-66.151
X122.909Y-68.036
X123.2Y-95.8
X123.6Y-109.0
X125.574Y-106.6
X126.286Y-104.56
X127.2Y-105.8
X129.0Y-66.0
X129.0Y-114.6
X130.2Y-102.6
X131.2Y-109.4
T2
X139.4Y-103.2
X139.4Y-105.74
X139.4Y-108.28
X103.2Y-96.0
X103.2Y-98.54
X103.2Y-101.08
X111.86Y-123.6
X114.4Y-123.6
X116.94Y-123.6
T3
X102.4Y-107.8
X102.4Y-110.34
X102.4Y-112.88
X102.4Y-115.42
X102.4Y-117.96
X138.0Y-83.4
X138.0Y-85.94
X138.0Y-88.48
X138.0Y-91.02
X138.0Y-93.56
X123.4Y-125.6
X125.94Y-125.6
X128.48Y-125.6
X131.02Y-125.6
X133.56Y-125.6
X104.72Y-83.8
X107.26Y-83.8
X109.8Y-83.8
X134.0Y-59.2
X136.54Y-59.2
X139.08Y-59.2
X116.6Y-88.8
X119.14Y-88.8
X121.68Y-88.8
X124.22Y-88.8
X126.76Y-88.8
X129.3Y-88.8
X98.6Y-66.6
X98.6Y-69.14
X98.6Y-71.68
T4
X138.0Y-74.2
T5
X97.2Y-60.0
X97.2Y-126.4
X144.6Y-60.0
X144.6Y-126.4
T0
M30
